<svg width="191" height="50" viewBox="0 0 191 50" fill="none" xmlns="http://www.w3.org/2000/svg">
<g id="Group 16084">
<g id="Logo-Black">
<g id="Group 16081">
<g id="Group 16079">
<path id="Path 11535" d="M51.8479 14.9736V37.8152C51.8479 40.529 52.5264 43.7706 56.1448 43.7706C59.6879 43.7706 60.4418 41.0567 60.4418 37.8906V14.9736H66.3972V37.8906C66.3972 43.846 64.0602 48.6706 56.0695 48.6706C48.2295 48.6706 45.8925 44.1475 45.8925 37.8906V14.9736H51.8479Z" fill="white"/>
<path id="Path 11536" d="M72.0509 48.0675V14.9736H78.7601C85.6201 33.2921 86.9016 36.7598 87.2786 38.3429H87.3539C87.0524 34.3475 87.0524 29.5229 87.0524 24.0952V14.9736H92.3293V48.0675H85.8463C78.7601 28.5429 77.5539 25.0752 77.1016 23.5675H77.0262C77.2524 27.6383 77.2524 32.5383 77.2524 38.4183V48.0675H72.0509V48.0675Z" fill="white"/>
<path id="Path 11537" d="M98.5862 48.0675V14.9736H105.295C112.155 33.2921 113.437 36.7598 113.814 38.3429H113.889C113.588 34.3475 113.588 29.5229 113.588 24.0952V14.9736H118.865V48.0675H112.382C105.295 28.5429 104.089 25.0752 103.637 23.5675V23.5675C103.863 27.6383 103.863 32.5383 103.863 38.4183V48.0675H98.5862V48.0675Z" fill="white"/>
<path id="Path 11538" d="M141.631 33.4429H131.002V43.0922H142.912L142.158 48.2183H125.121V15.0491H142.083V20.2506H130.926V28.3168H141.555V33.4429H141.631V33.4429Z" fill="white"/>
<path id="Path 11539" d="M152.562 34.046V48.1429H146.606V14.9736H156.708C162.739 14.9736 166.131 18.1398 166.131 24.0198C166.131 28.769 163.568 30.8798 161.834 31.5583C164.397 32.7644 165.603 34.9506 165.603 39.8506V41.2075C165.603 44.9767 165.754 46.409 166.055 48.1429H160.326C159.874 46.6352 159.723 43.9967 159.723 41.1321V39.926C159.723 35.4783 158.743 33.9706 154.974 33.9706C154.974 33.9706 152.562 33.9706 152.562 34.046ZM152.562 29.2213H155.351C158.894 29.2213 160.326 27.7136 160.326 24.3213C160.326 21.4567 158.969 19.7983 155.954 19.7983H152.562L152.562 29.2213V29.2213Z" fill="white"/>
<path id="Path 11540" d="M176.835 34.046V48.1429H170.955V14.9736H181.057C187.088 14.9736 190.48 18.1398 190.48 24.0198C190.48 28.769 187.917 30.8798 186.183 31.5583C188.746 32.7644 189.952 34.9506 189.952 39.8506V41.2075C189.952 44.9767 190.103 46.409 190.405 48.1429H184.675C184.223 46.6352 184.072 43.9967 184.072 41.1321V39.926C184.072 35.4783 183.092 33.9706 179.323 33.9706C179.323 33.9706 176.835 33.9706 176.835 34.046ZM176.835 29.2213H179.625C183.168 29.2213 184.6 27.7136 184.6 24.3213C184.6 21.4567 183.243 19.7983 180.228 19.7983H176.835L176.835 29.2213V29.2213Z" fill="white"/>
</g>
</g>
</g>
<g id="Group 16083">
<path id="Vector 9" d="M7.37159 15.5649L1 27.0452C6.65132 27.5985 9.81865 22.7574 10.6959 20.2677L19.0067 20.5443C25.9323 23.449 23.4391 29.8115 19.0067 31.1947C23.9931 34.5143 28.564 39.3093 30.3647 40.6002C28.0377 38.0552 25.4244 34.8371 24.4087 33.5461C33.135 24.5555 24.4087 15.9799 20.1148 15.9799L7.37159 15.5649Z" fill="white" stroke="white"/>
<g id="Ellipse 194" filter="url(#filter0_d_934_4705)">
<ellipse cx="26.02" cy="11.6121" rx="4.61177" ry="4.70588" fill="white"/>
</g>
<path id="Rectangle 18" d="M25.8504 5.55832L26.4053 6.08127L20.1857 12.6813L19.6308 12.1584C17.8083 10.4409 17.7231 7.57112 19.4406 5.74857C21.158 3.92602 24.0278 3.84084 25.8504 5.55832Z" fill="white" stroke="#225ECD" stroke-width="0.5"/>
<path id="Rectangle 19" d="M23.0154 6.40576L27.701 1.43352C28.0668 1.04529 28.6781 1.02715 29.0663 1.39299V1.39299C29.4546 1.75883 29.4727 2.37012 29.1069 2.75835L24.4213 7.73059L23.0154 6.40576Z" fill="white"/>
<rect id="Rectangle 20" x="14.6599" y="48.1653" width="19.7647" height="0.564706" fill="url(#paint0_linear_934_4705)"/>
<rect id="Rectangle 21" x="18.048" y="46.8477" width="14.6824" height="0.564706" fill="url(#paint1_linear_934_4705)"/>
<rect id="Rectangle 22" x="20.4949" y="45.53" width="12.2353" height="0.564706" fill="url(#paint2_linear_934_4705)"/>
<path id="Vector 10" d="M40.8244 44.0577C25.0821 46.3929 21.3537 21.9414 7.13031 34.7167C21.3537 33.7236 31.02 58.756 40.8244 44.0577Z" fill="white" stroke="white"/>
<path id="Vector 11" d="M42.9764 16.9184C39.2117 12.2125 27.2901 20.7772 23.7764 18.0478L21.7058 20.589C30.6658 30.9043 33.9411 16.5396 42.9764 16.9184Z" fill="white"/>
</g>
</g>
<defs>
<filter id="filter0_d_934_4705" x="11.4083" y="0.90625" width="29.2235" height="29.4119" filterUnits="userSpaceOnUse" color-interpolation-filters="sRGB">
<feFlood flood-opacity="0" result="BackgroundImageFix"/>
<feColorMatrix in="SourceAlpha" type="matrix" values="0 0 0 0 0 0 0 0 0 0 0 0 0 0 0 0 0 0 127 0" result="hardAlpha"/>
<feOffset dy="4"/>
<feGaussianBlur stdDeviation="5"/>
<feComposite in2="hardAlpha" operator="out"/>
<feColorMatrix type="matrix" values="0 0 0 0 0 0 0 0 0 0 0 0 0 0 0 0 0 0 0.25 0"/>
<feBlend mode="normal" in2="BackgroundImageFix" result="effect1_dropShadow_934_4705"/>
<feBlend mode="normal" in="SourceGraphic" in2="effect1_dropShadow_934_4705" result="shape"/>
</filter>
<linearGradient id="paint0_linear_934_4705" x1="31.3187" y1="48.73" x2="17.201" y2="48.73" gradientUnits="userSpaceOnUse">
<stop stop-color="white"/>
<stop offset="1" stop-color="white" stop-opacity="0"/>
</linearGradient>
<linearGradient id="paint1_linear_934_4705" x1="30.4231" y1="47.4124" x2="19.9357" y2="47.4124" gradientUnits="userSpaceOnUse">
<stop stop-color="white"/>
<stop offset="1" stop-color="white" stop-opacity="0"/>
</linearGradient>
<linearGradient id="paint2_linear_934_4705" x1="30.8075" y1="46.0947" x2="22.068" y2="46.0947" gradientUnits="userSpaceOnUse">
<stop stop-color="white"/>
<stop offset="1" stop-color="white" stop-opacity="0"/>
</linearGradient>
</defs>
</svg>
