<svg width="42" height="49" viewBox="0 0 42 49" fill="none" xmlns="http://www.w3.org/2000/svg">
<g clip-path="url(#clip0_934_4670)">
<path d="M6.37159 15.335L0 26.8152C5.65132 27.3685 8.81865 22.5274 9.6959 20.0377L18.0067 20.3144C24.9323 23.219 22.4391 29.5816 18.0067 30.9647C22.9931 34.2843 27.564 39.0793 29.3647 40.3703C27.0377 37.8252 24.4244 34.6071 23.4087 33.3161C32.135 24.3255 23.4087 15.7499 19.1148 15.7499L6.37159 15.335Z" fill="#1853ED" stroke="#1853ED"/>
<g filter="url(#filter0_d_934_4670)">
<ellipse cx="25.02" cy="11.3822" rx="4.61177" ry="4.70588" fill="#1853ED"/>
</g>
<path d="M18.6308 11.9284C16.8083 10.2109 16.7231 7.34114 18.4406 5.51859C20.158 3.69604 23.0278 3.61086 24.8504 5.32834L25.4053 5.85129L19.1857 12.4513L18.6308 11.9284Z" fill="#1853ED" stroke="white" stroke-width="0.5"/>
<path d="M23.5658 4.52979L26.6235 1.28507C27.0321 0.85141 27.715 0.831143 28.1486 1.23981C28.5823 1.64847 28.6026 2.33131 28.1939 2.76497L25.1363 6.00968L23.5658 4.52979Z" fill="#1853ED"/>
<rect x="13.6599" y="47.9351" width="19.7647" height="0.564706" fill="url(#paint6_linear_934_4670)"/>
<rect x="17.048" y="46.6177" width="14.6824" height="0.564706" fill="url(#paint7_linear_934_4670)"/>
<rect x="19.4949" y="45.2998" width="12.2353" height="0.564706" fill="url(#paint8_linear_934_4670)"/>
<path d="M39.8244 43.8277C24.0821 46.1629 20.3537 21.7115 6.13031 34.4867C20.3537 33.4937 30.02 58.526 39.8244 43.8277Z" fill="#1853ED" stroke="#1853ED"/>
<path d="M41.9764 16.6884C38.2117 11.9825 26.2901 20.5473 22.7764 17.8178L20.7058 20.359C29.6658 30.6743 32.9411 16.3096 41.9764 16.6884Z" fill="#1853ED"/>
</g>
<defs>
<filter id="filter0_d_934_4670" x="10.4083" y="0.67627" width="29.2235" height="29.4116" filterUnits="userSpaceOnUse" color-interpolation-filters="sRGB">
<feFlood flood-opacity="0" result="BackgroundImageFix"/>
<feColorMatrix in="SourceAlpha" type="matrix" values="0 0 0 0 0 0 0 0 0 0 0 0 0 0 0 0 0 0 127 0" result="hardAlpha"/>
<feOffset dy="4"/>
<feGaussianBlur stdDeviation="5"/>
<feComposite in2="hardAlpha" operator="out"/>
<feColorMatrix type="matrix" values="0 0 0 0 0 0 0 0 0 0 0 0 0 0 0 0 0 0 0.25 0"/>
<feBlend mode="normal" in2="BackgroundImageFix" result="effect1_dropShadow_934_4670"/>
<feBlend mode="normal" in="SourceGraphic" in2="effect1_dropShadow_934_4670" result="shape"/>
</filter>
<linearGradient id="paint6_linear_934_4670" x1="30.3187" y1="48.4998" x2="16.201" y2="48.4998" gradientUnits="userSpaceOnUse">
<stop stop-color="#1853ED"/>
<stop offset="1" stop-color="white" stop-opacity="0"/>
</linearGradient>
<linearGradient id="paint7_linear_934_4670" x1="29.4231" y1="47.1824" x2="18.9357" y2="47.1824" gradientUnits="userSpaceOnUse">
<stop stop-color="#1853ED"/>
<stop offset="1" stop-color="white" stop-opacity="0"/>
</linearGradient>
<linearGradient id="paint8_linear_934_4670" x1="29.8075" y1="45.8645" x2="21.068" y2="45.8645" gradientUnits="userSpaceOnUse">
<stop stop-color="#1853ED"/>
<stop offset="1" stop-color="white" stop-opacity="0"/>
</linearGradient>
<clipPath id="clip0_934_4670">
<rect width="189.48" height="48" fill="white" transform="translate(0 0.5)"/>
</clipPath>
</defs>
</svg>
