<svg width="571" height="438" viewBox="0 0 571 438" fill="none" xmlns="http://www.w3.org/2000/svg">
<path d="M402 21.4698C239.6 -32.1302 66.3333 27.1364 0 63.4698L2 366.47C42.8 383.67 214.333 415.303 295 428.97C334.2 436.17 394 437.97 419 437.97C496.6 438.77 535 420.97 544.5 411.97C589.7 377.57 566.333 324.97 549 302.97C536.6 308.17 510.167 307.136 498.5 305.97C442.5 301.97 432.833 247.97 435 221.47C491.4 187.47 500.833 141.97 498.5 123.47C493.7 63.8697 432.167 30.6364 402 21.4698Z" fill="url(#paint0_linear_934_4255)"/>
<defs>
<linearGradient id="paint0_linear_934_4255" x1="285.353" y1="0" x2="285.353" y2="437.996" gradientUnits="userSpaceOnUse">
<stop stop-color="#276EF1"/>
<stop offset="1" stop-color="#1D51B3"/>
</linearGradient>
</defs>
</svg>
