<svg width="725" height="562" viewBox="0 0 725 562" fill="none" xmlns="http://www.w3.org/2000/svg">
<path d="M182.096 42.8004C377.296 -49.9996 624.763 29.467 724.096 80.8004V467.8C696.896 491.8 437.429 535.134 311.096 553.8L220.096 559.8C166.496 564.6 121.763 557.8 106.096 553.8C43.6959 549 11.4293 507.8 3.09597 487.8C-8.10403 450.2 13.7626 407.467 26.096 390.8C155.696 418 176.096 332.8 170.096 286.8C29.2959 181.2 119.429 80.1337 182.096 42.8004Z" fill="url(#paint0_linear_1059_990)"/>
<circle cx="460" cy="105" r="75" fill="url(#paint1_linear_1059_990)" fill-opacity="0.2"/>
<circle cx="603.5" cy="319.5" r="60.5" fill="url(#paint2_linear_1059_990)" fill-opacity="0.2"/>
<circle cx="236" cy="154" r="18" fill="url(#paint3_linear_1059_990)" fill-opacity="0.2"/>
<defs>
<linearGradient id="paint0_linear_1059_990" x1="362.048" y1="0" x2="362.048" y2="561.451" gradientUnits="userSpaceOnUse">
<stop stop-color="#276EF1"/>
<stop offset="1" stop-color="#1D51B3"/>
</linearGradient>
<linearGradient id="paint1_linear_1059_990" x1="460" y1="30" x2="460" y2="180" gradientUnits="userSpaceOnUse">
<stop stop-color="white" stop-opacity="0"/>
<stop offset="1" stop-color="white"/>
</linearGradient>
<linearGradient id="paint2_linear_1059_990" x1="603.5" y1="259" x2="603.5" y2="380" gradientUnits="userSpaceOnUse">
<stop stop-color="white" stop-opacity="0"/>
<stop offset="1" stop-color="white"/>
</linearGradient>
<linearGradient id="paint3_linear_1059_990" x1="236" y1="136" x2="236" y2="172" gradientUnits="userSpaceOnUse">
<stop stop-color="white" stop-opacity="0"/>
<stop offset="1" stop-color="white"/>
</linearGradient>
</defs>
</svg>
