<svg width="937" height="683" viewBox="0 0 937 683" fill="none" xmlns="http://www.w3.org/2000/svg">
<path d="M151 238C19 208.4 -4.00004 67 0.999956 0H937V673C901.8 694.6 863 673.333 848 660C812.8 636.8 784.8 602.4 778 576C771.2 549.6 754.167 530 746.5 523.5C717.3 494.7 661 505.833 636.5 515L613 523.5C584.2 535.9 547.667 534.667 533 532.5C476.2 528.5 445 480.5 436.5 457C442.1 449 445.833 414 447 397.5C457.4 292.3 381.333 256.333 342 251.5C318 244.3 273.333 246.5 254 248.5C211.6 250.5 167.667 242.333 151 238Z" fill="url(#paint0_linear_934_4544)"/>
<defs>
<linearGradient id="paint0_linear_934_4544" x1="468.69" y1="0" x2="468.69" y2="682.243" gradientUnits="userSpaceOnUse">
<stop stop-color="#276EF1"/>
<stop offset="1" stop-color="#1D51B3"/>
</linearGradient>
</defs>
</svg>
