<svg width="143" height="143" viewBox="0 0 143 143" fill="none" xmlns="http://www.w3.org/2000/svg">
<g id="Group 1171274841">
<circle id="Ellipse 167" cx="71.5" cy="71.5" r="71.5" fill="url(#paint0_linear_934_4003)"/>
<g id="Group 1171274762">
<mask id="mask0_934_4003" style="mask-type:alpha" maskUnits="userSpaceOnUse" x="0" y="0" width="143" height="143">
<circle id="Ellipse 168" cx="71.5" cy="71.5" r="71.5" fill="url(#paint1_linear_934_4003)"/>
</mask>
<g mask="url(#mask0_934_4003)">
<line id="Line 57" x1="28.5065" y1="127.078" x2="113.559" y2="127.078" stroke="black"/>
</g>
</g>
<g id="Group 1171274759">
<path id="Vector" d="M114.983 11.166H88.0696V50.5663H114.983V11.166Z" fill="#ACACAC"/>
<path id="Vector_2" d="M96.7207 11.166H95.3761V50.5663H96.7207V11.166Z" fill="white"/>
<path id="Vector_3" d="M106.415 11.166H105.07V50.5663H106.415V11.166Z" fill="white"/>
<path id="Vector_4" d="M114.983 29.7805H88.0696V31.0176H114.983V29.7805Z" fill="white"/>
<path id="Vector_5" d="M115.791 10.281H87.2844V51.2576H115.791V10.281Z" stroke="#280734" stroke-width="0.25" stroke-linecap="round" stroke-linejoin="round"/>
</g>
<g id="OBJECTS">
<path id="Vector_6" d="M78.5018 132.933H71.0321L73.6035 120.542H81.0732L78.5018 132.933Z" fill="#FCAA92"/>
<path id="Vector_7" d="M69.9518 130.614H79.9693C79.9693 130.614 80.1349 132.783 83.3058 133.114C86.4767 133.446 88.2357 135.118 88.4802 137.374H68.6188C68.8412 135.082 69.2876 132.818 69.9518 130.614Z" fill="#D5D5D6"/>
<path id="Vector_8" d="M88.4802 137.374H68.6188V138.794H88.4802V137.374Z" fill="#01031F"/>
<path id="Vector_9" d="M80.9472 132.293C80.9472 132.293 78.4704 127.774 76.53 129.036C74.2347 130.519 80.9472 132.293 80.9472 132.293Z" stroke="#01031F" stroke-width="0.37" stroke-linecap="round" stroke-linejoin="round"/>
<path id="Vector_10" d="M80.9475 132.302C80.9475 132.302 83.2665 128.185 85.0965 129.841C86.9264 131.498 80.9475 132.302 80.9475 132.302Z" stroke="#01031F" stroke-width="0.37" stroke-linecap="round" stroke-linejoin="round"/>
<path id="Vector_11" d="M80.8912 132.302C80.1908 132.423 79.5411 132.747 79.0218 133.232" stroke="#01031F" stroke-width="0.37" stroke-linecap="round" stroke-linejoin="round"/>
<path id="Vector_12" d="M82.1542 132.933C81.4412 132.995 80.7811 133.335 80.3163 133.88" stroke="#01031F" stroke-width="0.37" stroke-linecap="round" stroke-linejoin="round"/>
<path id="Vector_13" d="M79.0614 65.098L87.4856 94.1408C88.0277 95.8909 88.0633 97.7587 87.5881 99.5281L82.4532 126.717H69.7381L74.3761 97.6982L64.9817 64.6799L79.0614 65.098Z" fill="#F1AA27"/>
<path id="Vector_14" d="M71.2685 77.5366L74.3763 97.6978L70.8662 85.4954L71.2685 77.5366Z" fill="#070C09"/>
<path id="Vector_15" d="M64.1305 132.933H56.6608L57.6783 120.542H65.1402L64.1305 132.933Z" fill="#FCAA92"/>
<path id="Vector_16" d="M55.5798 130.614H65.5973C65.5973 130.614 65.7708 132.783 68.9417 133.114C72.1126 133.446 73.8637 135.118 74.1161 137.374H54.231C54.4551 135.081 54.907 132.817 55.5798 130.614Z" fill="#D5D5D6"/>
<path id="Vector_17" d="M74.1167 137.374H54.2553V138.794H74.1167V137.374Z" fill="#01031F"/>
<path id="Vector_18" d="M66.5758 132.293C66.5758 132.293 64.099 127.774 62.1587 129.036C59.8712 130.519 66.5758 132.293 66.5758 132.293Z" stroke="#01031F" stroke-width="0.37" stroke-linecap="round" stroke-linejoin="round"/>
<path id="Vector_19" d="M66.5754 132.302C66.5754 132.302 68.8944 128.185 70.7323 129.841C72.5702 131.498 66.5754 132.302 66.5754 132.302Z" stroke="#01031F" stroke-width="0.37" stroke-linecap="round" stroke-linejoin="round"/>
<path id="Vector_20" d="M66.5202 132.302C65.822 132.423 65.1748 132.747 64.6587 133.232" stroke="#01031F" stroke-width="0.37" stroke-linecap="round" stroke-linejoin="round"/>
<path id="Vector_21" d="M67.7907 132.933C67.0776 132.995 66.4176 133.335 65.9528 133.88" stroke="#01031F" stroke-width="0.37" stroke-linecap="round" stroke-linejoin="round"/>
<path id="Vector_22" d="M69.3051 133.162C69.3051 133.162 73.8958 133.722 74.1167 137.374" stroke="#01031F" stroke-width="0.37" stroke-linecap="round" stroke-linejoin="round"/>
<path id="Vector_23" d="M60.8728 64.5295C60.8728 64.5295 57.2208 68.1343 57.2918 81.3621L57.1498 96.6486L53.7738 126.717L66.8518 126.551L70.1094 98.873C70.3593 97.2775 70.5068 95.6678 70.5511 94.0535L71.7264 64.6794L60.8728 64.5295Z" fill="#F1AA27"/>
<path id="Vector_24" d="M70.8662 85.4957L71.2685 77.537L74.116 75.1233" stroke="#070C09" stroke-width="0.26" stroke-linecap="round" stroke-linejoin="round"/>
<path id="Vector_25" d="M79.4721 38.9344C80.5233 38.6802 81.631 38.817 82.5888 39.3191C83.5466 39.8212 84.2891 40.6545 84.678 41.6636L92.4081 61.7222C92.8036 62.7444 92.81 63.8761 92.4262 64.9027C92.0423 65.9293 91.2948 66.7792 90.3257 67.291C89.7635 67.5927 89.1433 67.7708 88.5066 67.8134C87.87 67.8561 87.2316 67.7622 86.6342 67.5382C86.0368 67.3141 85.4941 66.9651 85.0424 66.5144C84.5908 66.0636 84.2407 65.5216 84.0155 64.9247L76.3722 44.8739C76.1445 44.2825 76.0453 43.6493 76.0812 43.0165C76.1171 42.3837 76.2874 41.7659 76.5806 41.204C76.8739 40.6421 77.2834 40.1492 77.7819 39.7578C78.2805 39.3665 78.8567 39.0858 79.4721 38.9344Z" fill="black"/>
<path id="Vector_26" d="M90.8313 48.1157L94.081 40.2279C94.1986 39.9459 94.4145 39.7161 94.6887 39.5812C94.9628 39.4463 95.2766 39.4155 95.5718 39.4944L95.8716 39.5812L97.2913 36.6548C97.2913 36.6548 98.7033 36.8441 98.372 38.6346C98.0407 40.4251 98.5613 44.0851 95.3588 50.6871L90.8313 48.1157Z" fill="#FCAA92"/>
<path id="Vector_27" d="M94.9484 43.0357C94.8935 43.0432 94.8377 43.0432 94.7828 43.0357C94.6584 42.9927 94.5562 42.9021 94.4985 42.7838C94.4408 42.6655 94.4324 42.5292 94.4752 42.4047L97.8827 32.5134C97.9299 32.3947 98.021 32.2986 98.1372 32.2453C98.2533 32.1919 98.3855 32.1854 98.5064 32.2271C98.6272 32.2687 98.7274 32.3553 98.786 32.4688C98.8447 32.5824 98.8573 32.7142 98.8213 32.8368L95.4138 42.7281C95.3759 42.8201 95.3113 42.8985 95.2284 42.9534C95.1454 43.0082 95.0479 43.0369 94.9484 43.0357Z" fill="#030907"/>
<path id="Vector_28" d="M91.4617 45.3862L83.9999 59.1662L92.3688 65.0978L97.5275 49.4721L91.4617 45.3862Z" fill="black"/>
<path id="Vector_29" d="M88.369 51.0972L85.8528 55.7431" stroke="#070C09" stroke-width="0.26" stroke-linecap="round" stroke-linejoin="round"/>
<path id="Vector_30" d="M80.5764 38.8396H59.3346L59.5396 49.0543L60.8727 64.5301L79.054 65.098L82.146 45.7099L80.5764 38.8396Z" fill="black"/>
<path id="Vector_31" d="M80.5451 55.7435L81.4285 50.2063L81.886 59.2299L80.5451 55.7435Z" fill="#070C09"/>
<path id="Vector_32" d="M65.6928 38.8396H76.7357C76.7357 38.8396 77.2326 42.5942 72.1292 42.5942C67.9802 42.5942 65.89 39.8019 65.6928 38.8475V38.8396Z" fill="#FCAA92"/>
<path id="Vector_33" d="M61.9377 39.5968C63.8071 40.8194 65.2663 43.2489 64.304 45.2602L57.3864 62.5108C56.4004 64.5538 52.4802 65.5397 50.3426 64.8062C47.8028 63.9306 47.0455 60.5862 48.2129 58.1725L55.4855 41.3794C55.7609 40.8086 56.1552 40.3032 56.6419 39.8972C57.1285 39.4911 57.6964 39.1937 58.3073 39.0249C58.9182 38.8561 59.5582 38.8198 60.1843 38.9185C60.8104 39.0171 61.4082 39.2484 61.9377 39.5968Z" fill="black"/>
<path id="Vector_34" d="M60.1077 55.6957L62.9 49.2356L60.4706 59.821L60.1077 55.6957Z" fill="#070C09"/>
<path id="Vector_35" d="M79.843 60.9093L78.4074 70.8085C78.3604 71.125 78.195 71.4118 77.9446 71.6109C77.6942 71.8101 77.3775 71.9067 77.0586 71.8812L72.815 71.5342C72.4942 71.5081 72.1955 71.3605 71.98 71.1215C71.7645 70.8825 71.6484 70.5702 71.6555 70.2485L71.8921 60.2546L79.843 60.9093Z" fill="white"/>
<path id="Vector_36" d="M71.4043 60.2194L80.3193 60.9492L80.4531 59.314L71.5382 58.5842L71.4043 60.2194Z" fill="#030907"/>
<path id="Vector_37" d="M79.5434 59.6873L79.1569 58.2201L72.9492 57.7153L72.3892 59.0957L79.5434 59.6873Z" fill="#030907"/>
<path id="Vector_38" d="M71.5691 67.2277L79.0309 67.8351L79.6935 63.7256L71.5848 63.063L71.5691 67.2277Z" fill="#030907"/>
<path id="Vector_39" d="M69.3441 64.0724C70.0631 63.5322 70.8613 63.1065 71.7105 62.8103C72.6728 62.5027 75.962 63.4966 77.011 63.9067C77.1349 63.9571 77.2409 64.0433 77.3154 64.1543C77.3899 64.2654 77.4295 64.3962 77.4291 64.5299C77.4283 64.6275 77.4063 64.7238 77.3644 64.812C77.3226 64.9002 77.262 64.9782 77.1869 65.0405C77.1117 65.1029 77.0239 65.1481 76.9295 65.1729C76.8351 65.1978 76.7364 65.2018 76.6403 65.1846L73.9506 64.7744L76.7192 66.3519C76.9016 66.4824 77.0269 66.6778 77.0695 66.8979C77.1121 67.118 77.0686 67.3461 76.9479 67.5351C76.5545 68.2073 76.0919 68.8365 75.5676 69.4124C74.7236 69.8857 71.7499 69.4124 71.7499 69.4124C70.8028 69.6492 69.8145 69.6694 68.8585 69.4713C67.9025 69.2733 67.0035 68.8622 66.2284 68.2687L69.3441 64.0724Z" fill="#FCAA92"/>
<path id="Vector_40" d="M54.4519 56.9343L69.3441 64.0333L66.6228 71.4715L50.579 65.6345C48.2127 64.8458 47.0374 61.4382 48.0076 59.1508C48.9463 56.9501 52.2828 55.9562 54.4519 56.9343Z" fill="black"/>
<path id="Vector_41" d="M68.5946 17.8189C68.5946 17.8189 65.0609 17.251 65.6525 21.3841C65.8593 22.6106 66.3882 23.7601 67.1851 24.715C67.982 25.6699 69.0183 26.3959 70.188 26.8188L70.5508 18.442L68.5946 17.8189Z" fill="#013D55"/>
<path id="Vector_42" d="M75.0236 17.0854C75.0236 17.0854 64.4855 14.3562 67.3724 25.2414L75.5284 18.2765L75.0236 17.0854Z" fill="#013D55"/>
<path id="Vector_43" d="M77.8073 28.0886C77.7388 28.5799 77.8175 29.0805 78.0334 29.5271C78.2494 29.9737 78.5929 30.3462 79.0205 30.5976C79.4482 30.8489 79.9408 30.9678 80.436 30.9393C80.9312 30.9107 81.4069 30.736 81.8028 30.4371C82.1987 30.1382 82.4971 29.7287 82.6603 29.2602C82.8235 28.7918 82.8441 28.2854 82.7195 27.8053C82.595 27.3251 82.3308 26.8927 81.9605 26.5626C81.5902 26.2325 81.1303 26.0197 80.639 25.951C80.3126 25.9043 79.9801 25.9226 79.6608 26.0049C79.3415 26.0872 79.0416 26.2319 78.7784 26.4305C78.5152 26.6292 78.2939 26.878 78.1272 27.1626C77.9606 27.4471 77.8518 27.7618 77.8073 28.0886Z" fill="#F29883"/>
<path id="Vector_44" d="M76.0094 31.5908L74.9683 39.8493C74.637 42.3418 73.5011 42.2156 71.3872 41.9238C69.573 41.6714 67.7352 41.5215 67.7983 39.4076L70.1646 28.9089L76.0094 31.5908Z" fill="#FCAA92"/>
<path id="Vector_45" d="M75.2679 37.467L69.6833 31.7168L75.6938 33.9806L75.2679 37.467Z" fill="#030907"/>
<path id="Vector_46" d="M76.0494 35.0447C76.6687 35.1307 77.299 35.0914 77.9028 34.9292C78.5067 34.767 79.0719 34.4852 79.5647 34.1004C80.0576 33.7157 80.4682 33.2358 80.7722 32.6894C81.0761 32.143 81.2672 31.5411 81.3342 30.9194L81.9967 24.4514C82.1655 22.8704 81.7124 21.2858 80.7334 20.0329C79.7544 18.7801 78.3263 17.9574 76.7514 17.7389C73.407 17.2657 69.7234 19.5216 69.2501 22.8739L68.9504 29.3497C68.5954 32.6153 72.2001 34.887 76.0494 35.0447Z" fill="#FCAA92"/>
<path id="Vector_47" d="M78.5965 28.6719L78.6044 30.0128L77.7919 29.9339" stroke="#070C09" stroke-width="0.26" stroke-linecap="round" stroke-linejoin="round"/>
<path id="Vector_48" d="M79.5276 28.0964C79.5165 28.2371 79.5605 28.3766 79.6502 28.4855C79.74 28.5944 79.8686 28.6642 80.0088 28.6801C80.0792 28.6868 80.1503 28.6796 80.218 28.6589C80.2856 28.6381 80.3485 28.6043 80.4031 28.5592C80.4576 28.5142 80.5028 28.4588 80.536 28.3963C80.5692 28.3338 80.5897 28.2654 80.5964 28.195C80.6032 28.1245 80.596 28.0535 80.5752 27.9858C80.5545 27.9182 80.5206 27.8553 80.4756 27.8007C80.4305 27.7461 80.3752 27.701 80.3127 27.6678C80.2502 27.6346 80.1818 27.6141 80.1113 27.6073C79.9694 27.5963 79.8288 27.6414 79.7197 27.7328C79.6106 27.8242 79.5417 27.9547 79.5276 28.0964Z" fill="#030907"/>
<path id="Vector_49" d="M75.2445 27.6547C75.2343 27.7584 75.2549 27.8629 75.3039 27.955C75.3529 28.047 75.428 28.1225 75.5198 28.172C75.6117 28.2214 75.716 28.2426 75.8199 28.2329C75.9237 28.2231 76.0223 28.1829 76.1033 28.1172C76.1843 28.0515 76.2441 27.9634 76.275 27.8638C76.306 27.7642 76.3069 27.6577 76.2775 27.5577C76.2481 27.4576 76.1897 27.3685 76.1098 27.3016C76.0299 27.2346 75.9319 27.1928 75.8282 27.1814C75.7588 27.1737 75.6885 27.18 75.6214 27.1997C75.5544 27.2194 75.4919 27.2522 75.4376 27.2962C75.3833 27.3402 75.3383 27.3946 75.3052 27.4561C75.272 27.5176 75.2514 27.5851 75.2445 27.6547Z" fill="#030907"/>
<path id="Vector_50" d="M75.5281 24.61C75.5281 24.61 76.9164 24.5469 76.869 25.2805C76.869 25.2805 76.869 25.7774 75.6228 25.809C74.3765 25.8405 74.1083 25.6986 74.0452 25.2253C73.9821 24.752 74.8892 24.5785 75.5281 24.61Z" fill="#030907"/>
<path id="Vector_51" d="M80.474 25.0756C80.474 25.0756 79.3461 24.8548 79.2041 25.541C79.2041 25.541 79.1095 26.0064 80.1033 26.172C81.0972 26.3377 81.4285 26.172 81.5468 25.8171C81.6651 25.4621 81.0498 25.1229 80.474 25.0756Z" fill="#030907"/>
<path id="Vector_52" d="M76.3168 31.1328C76.5711 31.346 76.878 31.4871 77.2055 31.5412C77.5329 31.5953 77.8689 31.5605 78.1783 31.4404" stroke="#070C09" stroke-width="0.26" stroke-linecap="round" stroke-linejoin="round"/>
<path id="Vector_53" d="M70.1885 26.8187L71.3717 26.3691C71.5689 25.1465 71.6005 22.6382 73.036 21.5813C75.5286 19.7197 78.0527 20.0668 82.178 22.4489C81.857 21.0609 81.1105 19.8078 80.0429 18.8646C78.9752 17.9214 77.6397 17.3352 76.2227 17.1878C71.0168 16.399 67.3016 20.8083 67.3411 23.0405C67.3805 25.2727 70.1885 26.8187 70.1885 26.8187Z" fill="#013D55"/>
<path id="Vector_54" d="M69.3452 29.7691C70.6244 29.2374 71.2304 27.7693 70.6987 26.4901C70.167 25.2109 68.699 24.6049 67.4198 25.1366C66.1406 25.6683 65.5346 27.1364 66.0663 28.4156C66.598 29.6948 68.066 30.3008 69.3452 29.7691Z" fill="#FCAA92"/>
<path id="Vector_55" d="M69.1469 28.3171C69.1469 28.3171 69.3993 26.5108 67.6324 26.5502" stroke="#070C09" stroke-width="0.26" stroke-linecap="round" stroke-linejoin="round"/>
<path id="Vector_56" d="M72.6964 21.8485C73.4244 21.1789 74.3773 20.8073 75.3664 20.8073C76.3555 20.8073 77.3085 21.1789 78.0364 21.8485C80.3397 23.6785 83.6052 24.696 85.1355 21.7854C86.6657 18.8748 84.8673 14.5602 78.4939 16.6426C72.1206 18.725 72.6964 21.8485 72.6964 21.8485Z" fill="#013D55"/>
<path id="Vector_57" d="M79.1167 16.4381C78.3926 16.7195 77.6076 16.8064 76.8395 16.6901C76.0715 16.5739 75.3473 16.2586 74.739 15.7756C72.6408 14.0481 68.4287 15.1445 68.6259 17.8579L73.0983 19.2541L81.412 18.8833L79.1167 16.4381Z" fill="#013D55"/>
</g>
<g id="Group 1171274761">
<path id="Vector_58" d="M37.3247 125.666C37.3428 125.684 37.3674 125.694 37.393 125.694C37.4186 125.694 37.4432 125.684 37.4613 125.666C37.4794 125.648 37.4896 125.623 37.4896 125.597V86.5793C37.4896 86.5537 37.4794 86.5291 37.4613 86.511C37.4432 86.4929 37.4186 86.4827 37.393 86.4827C37.3674 86.4827 37.3428 86.4929 37.3247 86.511C37.3066 86.5291 37.2964 86.5537 37.2964 86.5793V125.597C37.2964 125.623 37.3066 125.648 37.3247 125.666Z" fill="black" stroke="black" stroke-width="0.1"/>
<path id="Vector_59" d="M38.8439 90.2432C38.8662 90.2437 38.8881 90.2367 38.906 90.2233C38.9242 90.2097 38.9371 90.1903 38.9428 90.1684L38.9444 90.1688V90.1559V86.5795L38.9364 86.541C38.9312 86.5289 38.9235 86.5179 38.9138 86.5088C38.9042 86.4998 38.8927 86.4928 38.8803 86.4883C38.8683 86.4841 38.8556 86.4822 38.843 86.4828M38.8439 90.2432C38.8185 90.243 38.7943 90.2328 38.7763 90.2149C38.7582 90.1968 38.748 90.1722 38.748 90.1466V86.5794C38.748 86.5538 38.7582 86.5292 38.7763 86.5111C38.7941 86.4934 38.818 86.4833 38.843 86.4828M38.8439 90.2432C38.8436 90.2432 38.8433 90.2432 38.8431 90.2432L38.8446 90.1932V90.2432C38.8444 90.2432 38.8441 90.2432 38.8439 90.2432ZM38.843 86.4828C38.8424 86.4829 38.8419 86.4829 38.8413 86.4829L38.8446 86.5328V86.4828C38.8441 86.4828 38.8435 86.4828 38.843 86.4828Z" fill="black" stroke="black" stroke-width="0.1"/>
<path id="Vector_60" d="M44.0714 87.3285H32.2451L33.7055 80.0699C34.2576 79.8664 34.8278 79.7156 35.4083 79.6193C38.7766 79.0445 42.3717 80.0699 42.3717 80.0699L44.0714 87.3285Z" fill="#276EF1"/>
<path id="Vector_61" d="M43.7389 125.846V127.133H32.7453V125.849C32.7437 125.733 32.7651 125.618 32.8084 125.51C32.8516 125.402 32.9159 125.303 32.9974 125.221C33.0789 125.138 33.176 125.072 33.2831 125.027C33.3903 124.981 33.5053 124.958 33.6216 124.958H42.8626C42.9787 124.958 43.0934 124.981 43.2004 125.026C43.3073 125.071 43.4043 125.137 43.4858 125.219C43.5672 125.302 43.6315 125.4 43.6749 125.508C43.7184 125.615 43.7401 125.73 43.7389 125.846Z" fill="black"/>
</g>
<g id="Group 1171274761_2">
<path id="Vector_62" d="M106.315 113.067H95.5131L97.3782 122.452H104.064L106.315 113.067Z" fill="black"/>
<path id="Vector_63" d="M94.0678 127.111C94.0947 127.11 94.1207 127.101 94.1421 127.085C94.1636 127.069 94.1795 127.047 94.1876 127.021L96.2837 119.347H105.609L107.646 127.017C107.649 127.032 107.656 127.047 107.665 127.06C107.674 127.073 107.686 127.084 107.699 127.092C107.713 127.101 107.728 127.106 107.744 127.109C107.76 127.111 107.776 127.11 107.791 127.107C107.823 127.099 107.85 127.078 107.867 127.05C107.884 127.022 107.889 126.989 107.881 126.957L105.823 119.193C105.816 119.166 105.801 119.143 105.779 119.127C105.757 119.11 105.731 119.102 105.703 119.103H96.1896C96.1629 119.102 96.1369 119.111 96.1158 119.127C96.0948 119.144 96.08 119.167 96.0741 119.193L93.9352 126.957C93.9272 126.988 93.9317 127.021 93.9477 127.049C93.9637 127.077 93.9898 127.098 94.0207 127.107L94.0678 127.111Z" fill="#092639"/>
<path id="Vector_64" d="M100.916 126.961C100.949 126.96 100.979 126.946 101.001 126.923C101.024 126.9 101.036 126.869 101.036 126.837V119.222C101.031 119.194 101.016 119.168 100.994 119.15C100.971 119.131 100.943 119.121 100.914 119.121C100.885 119.121 100.857 119.131 100.835 119.15C100.813 119.168 100.798 119.194 100.792 119.222V126.837C100.792 126.87 100.806 126.901 100.829 126.925C100.852 126.948 100.884 126.961 100.916 126.961Z" fill="#092639"/>
<path id="Vector_65" d="M100.916 113.187C100.948 113.187 100.978 113.174 101.001 113.152C101.023 113.129 101.036 113.099 101.036 113.067V102.578C101.039 102.56 101.039 102.541 101.034 102.524C101.03 102.506 101.021 102.49 101.009 102.476C100.998 102.461 100.983 102.45 100.967 102.442C100.95 102.435 100.932 102.431 100.914 102.431C100.896 102.431 100.878 102.435 100.861 102.442C100.845 102.45 100.83 102.461 100.818 102.476C100.807 102.49 100.798 102.506 100.794 102.524C100.789 102.541 100.789 102.56 100.792 102.578V113.067C100.792 113.083 100.795 113.099 100.802 113.114C100.808 113.129 100.817 113.142 100.829 113.153C100.84 113.164 100.854 113.173 100.869 113.179C100.884 113.185 100.9 113.187 100.916 113.187Z" fill="#CACACA"/>
<path id="Vector_66" d="M100.916 110.478C100.916 110.478 102.837 107.552 107.418 108.245C106.774 109.35 105.737 110.171 104.514 110.543C102.366 111.265 100.916 110.478 100.916 110.478Z" fill="#F1AA27"/>
<path id="Vector_67" d="M100.916 107.373C100.916 107.373 101.883 103.998 106.315 104.626C105.671 105.504 104.826 106.214 103.851 106.697C102.932 107.13 101.931 107.36 100.916 107.373Z" fill="#F1AA27"/>
<path id="Vector_68" d="M100.916 104.135C100.916 104.135 101.245 101.606 104.672 100.738C104.49 101.622 104.042 102.43 103.389 103.052C102.654 103.591 101.81 103.96 100.916 104.135Z" fill="#F1AA27"/>
<path id="Vector_69" d="M100.916 103.052C100.916 103.052 99.1362 101.174 100.916 98.1372C101.345 99.0779 101.572 100.098 101.583 101.132C101.562 102.689 100.916 103.052 100.916 103.052Z" fill="#F1AA27"/>
<path id="Vector_70" d="M100.917 110.65C100.917 110.65 98.9915 107.724 94.41 108.417C95.0548 109.522 96.094 110.343 97.3189 110.714C99.4663 111.437 100.917 110.65 100.917 110.65Z" fill="#F1AA27"/>
<path id="Vector_71" d="M100.916 107.549C100.916 107.549 99.9449 104.173 95.5131 104.802C96.1582 105.678 97.0029 106.388 97.9771 106.873C98.897 107.306 99.8992 107.536 100.916 107.549Z" fill="#F1AA27"/>
<path id="Vector_72" d="M100.916 104.305C100.916 104.305 100.583 101.777 97.1606 100.909C97.3411 101.793 97.7891 102.601 98.4439 103.223C99.1789 103.76 100.023 104.13 100.916 104.305Z" fill="#F1AA27"/>
</g>
<path id="Fill 105" fill-rule="evenodd" clip-rule="evenodd" d="M33.7433 14.3017C33.2337 14.3017 32.7419 14.3766 32.2782 14.5147C31.4323 11.0151 28.2295 8.41187 24.407 8.41187C20.6084 8.41187 17.4217 10.9832 16.5521 14.4499C16.1593 14.3535 15.7487 14.3017 15.3255 14.3017C12.5396 14.3017 10.281 16.5195 10.281 19.2552C10.281 21.9911 12.5396 24.2089 15.3255 24.2089H23.1733C23.5756 24.2693 23.9876 24.3008 24.407 24.3008C24.8266 24.3008 25.2386 24.2693 25.6408 24.2089H33.7433C36.5292 24.2089 38.7876 21.9911 38.7876 19.2552C38.7876 16.5195 36.5292 14.3017 33.7433 14.3017Z" fill="#F1AA27"/>
</g>
<defs>
<linearGradient id="paint0_linear_934_4003" x1="71.5" y1="0" x2="71.5" y2="143" gradientUnits="userSpaceOnUse">
<stop stop-color="#E3E3E3"/>
<stop offset="1" stop-color="white" stop-opacity="0"/>
</linearGradient>
<linearGradient id="paint1_linear_934_4003" x1="71.5" y1="0" x2="71.5" y2="143" gradientUnits="userSpaceOnUse">
<stop stop-color="#EEDBFE"/>
<stop offset="1" stop-color="white" stop-opacity="0"/>
</linearGradient>
</defs>
</svg>
