<svg width="170" height="57" viewBox="0 0 170 57" fill="none" xmlns="http://www.w3.org/2000/svg">
<g id="Atom/Button/Stores">
<g id="Group">
<g id="Group_2">
<path id="Vector" d="M156.462 -5.88912e-05H13.5454C13.0244 -5.88912e-05 12.5097 -5.88911e-05 11.9902 0.0027911C11.5552 0.00564109 11.1238 0.0139203 10.6847 0.0208885C9.73072 0.0321486 8.77902 0.116329 7.83783 0.272699C6.89797 0.432474 5.98755 0.733694 5.13736 1.16617C4.28821 1.60231 3.51232 2.16902 2.83784 2.84576C2.15981 3.52059 1.59462 4.3006 1.164 5.1558C0.7322 6.0093 0.432786 6.92391 0.276102 7.86803C0.117929 8.81095 0.0328146 9.76475 0.0215228 10.7209C0.00833918 11.1578 0.00694695 11.5961 0 12.0331V44.9708C0.00694695 45.4133 0.00833918 45.8419 0.0215228 46.2845C0.032818 47.2406 0.117932 48.1943 0.276102 49.1372C0.432353 50.0819 0.731785 50.997 1.164 51.8508C1.59442 52.7033 2.15969 53.4801 2.83784 54.1512C3.50976 54.8309 4.28616 55.398 5.13736 55.8308C5.98754 56.2645 6.89786 56.5675 7.83783 56.7297C8.77918 56.8848 9.73078 56.9691 10.6847 56.9817C11.1238 56.9914 11.5552 56.9969 11.9902 56.9969C12.5097 56.9998 13.0245 56.9998 13.5454 56.9998H156.462C156.973 56.9998 157.492 56.9998 158.002 56.9969C158.435 56.9969 158.879 56.9914 159.312 56.9817C160.264 56.9697 161.214 56.8855 162.153 56.7297C163.096 56.5663 164.01 56.2634 164.864 55.8308C165.715 55.3978 166.49 54.8307 167.162 54.1512C167.838 53.4775 168.404 52.7012 168.84 51.8508C169.269 50.9964 169.566 50.0813 169.72 49.1372C169.878 48.1942 169.966 47.2407 169.983 46.2845C169.989 45.8419 169.989 45.4133 169.989 44.9708C170 44.4531 170 43.9382 170 43.4121V13.5889C170 13.067 170 12.5494 169.989 12.0331C169.989 11.5961 169.989 11.1578 169.983 10.7208C169.966 9.76461 169.878 8.81102 169.72 7.86797C169.565 6.9244 169.269 6.00986 168.84 5.15575C167.963 3.44158 166.573 2.04627 164.864 1.16604C164.01 0.734622 163.096 0.433482 162.153 0.272571C161.214 0.115512 160.264 0.0313021 159.312 0.020689C158.879 0.0137351 158.435 0.00538459 158.002 0.00260585C157.492 -0.000244141 156.973 -0.000244141 156.462 -0.000244141V-5.88912e-05Z" fill="#A6A6A6"/>
<path id="Vector_2" d="M11.9972 55.7529C11.5643 55.7529 11.142 55.7473 10.7125 55.7376C9.82288 55.726 8.93532 55.6483 8.05713 55.5052C7.23826 55.3638 6.44499 55.1006 5.70349 54.7245C4.96879 54.3514 4.29869 53.8623 3.71885 53.2758C3.13062 52.6962 2.64089 52.024 2.26907 51.2858C1.89315 50.5428 1.633 49.7464 1.49766 48.9243C1.35151 48.041 1.27244 47.1478 1.26112 46.2525C1.25212 45.9519 1.24033 44.9513 1.24033 44.9513V12.0331C1.24033 12.0331 1.25288 11.0478 1.2612 10.7584C1.27203 9.86446 1.35064 8.97266 1.49635 8.09069C1.63194 7.26636 1.8923 6.46765 2.26842 5.72221C2.63887 4.98451 3.12588 4.31179 3.71057 3.73014C4.2946 3.14296 4.96685 2.65131 5.7028 2.27312C6.44259 1.89818 7.23436 1.63689 8.05157 1.49801C8.93265 1.35347 9.82329 1.27532 10.716 1.26423L11.9979 1.24683H157.995L159.293 1.26492C160.177 1.27547 161.06 1.35292 161.933 1.49661C162.758 1.63724 163.558 1.90035 164.306 2.2773C165.781 3.03945 166.98 4.24525 167.737 5.72569C168.107 6.46598 168.364 7.25818 168.498 8.07539C168.645 8.96459 168.728 9.8634 168.745 10.7647C168.749 11.1682 168.749 11.6017 168.749 12.0331C168.76 12.5675 168.76 13.0761 168.76 13.5889V43.4122C168.76 43.9299 168.76 44.435 168.749 44.9443C168.749 45.4077 168.749 45.8322 168.743 46.2691C168.727 47.1543 168.645 48.0371 168.5 48.9104C168.368 49.7384 168.109 50.541 167.733 51.2901C167.359 52.0203 166.872 52.6867 166.29 53.2647C165.71 53.8544 165.039 54.3463 164.302 54.7218C163.556 55.1008 162.757 55.3649 161.933 55.5052C161.055 55.6491 160.167 55.7268 159.277 55.7376C158.861 55.7473 158.425 55.7529 158.002 55.7529L156.462 55.7557L11.9972 55.7529Z" fill="black"/>
</g>
<g id="&#60;Group&#62;">
<g id="&#60;Group&#62;_2">
<g id="&#60;Group&#62;_3">
<path id="&#60;Path&#62;" d="M35.1877 28.9283C35.2029 27.7389 35.5179 26.5727 36.1032 25.5382C36.6886 24.5037 37.5253 23.6346 38.5355 23.0116C37.8937 22.0923 37.0471 21.3357 36.0628 20.8019C35.0786 20.2682 33.9838 19.972 32.8655 19.9369C30.4799 19.6858 28.1671 21.3688 26.9515 21.3688C25.7123 21.3688 23.8406 19.9619 21.8251 20.0035C20.5214 20.0457 19.2509 20.426 18.1372 21.1072C17.0236 21.7884 16.1049 22.7474 15.4707 23.8907C12.7231 28.6621 14.7725 35.6746 17.4044 39.5315C18.7212 41.4201 20.2602 43.5298 22.2739 43.455C24.2444 43.373 24.9804 42.1946 27.3589 42.1946C29.7154 42.1946 30.4059 43.455 32.4605 43.4074C34.5749 43.373 35.9071 41.5104 37.1777 39.6039C38.1238 38.2582 38.8519 36.7709 39.3349 35.1971C38.1064 34.6759 37.0581 33.8036 36.3206 32.6888C35.5831 31.574 35.1891 30.2662 35.1877 28.9283V28.9283Z" fill="white"/>
<path id="&#60;Path&#62;_2" d="M31.307 17.4004C32.4599 16.0121 33.0279 14.2278 32.8904 12.4263C31.129 12.6118 29.502 13.4562 28.3335 14.7912C27.7622 15.4434 27.3247 16.2021 27.0459 17.024C26.7671 17.8459 26.6525 18.7148 26.7087 19.5812C27.5897 19.5903 28.4613 19.3987 29.2578 19.021C30.0543 18.6432 30.755 18.0891 31.307 17.4004Z" fill="white"/>
</g>
</g>
<g id="Group_3">
<path id="Vector_3" d="M60.0966 38.6737H53.3721L51.7572 43.4566H48.909L55.2783 25.761H58.2375L64.6068 43.4566H61.71L60.0966 38.6737ZM54.0685 36.4666H59.3988L56.7712 28.7042H56.6976L54.0685 36.4666Z" fill="white"/>
<path id="Vector_4" d="M78.3624 37.0068C78.3624 41.016 76.2231 43.5918 72.9947 43.5918C72.1769 43.6347 71.3636 43.4458 70.6479 43.0466C69.9322 42.6474 69.343 42.0541 68.9479 41.3346H68.8868V47.7248H66.2466V30.5553H68.8022V32.7012H68.8507C69.2641 31.9852 69.8632 31.395 70.5844 30.9933C71.3055 30.5917 72.1218 30.3937 72.9462 30.4203C76.2106 30.4204 78.3624 33.0087 78.3624 37.0068ZM75.6487 37.0068C75.6487 34.3948 74.303 32.6775 72.2497 32.6775C70.2325 32.6775 68.8757 34.4309 68.8757 37.0068C68.8757 39.6063 70.2325 41.3472 72.2497 41.3472C74.303 41.3472 75.6487 39.6425 75.6487 37.0068Z" fill="white"/>
<path id="Vector_5" d="M92.5188 37.0068C92.5188 41.016 90.3795 43.5918 87.1511 43.5918C86.3333 43.6347 85.52 43.4458 84.8043 43.0466C84.0886 42.6474 83.4994 42.0541 83.1042 41.3346H83.0431V47.7248H80.403V30.5553H82.9585V32.7012H83.0071C83.4204 31.9852 84.0195 31.3949 84.7407 30.9933C85.4619 30.5917 86.2781 30.3937 87.1025 30.4203C90.367 30.4203 92.5188 33.0087 92.5188 37.0068ZM89.8051 37.0068C89.8051 34.3948 88.4594 32.6775 86.4061 32.6775C84.3889 32.6775 83.0321 34.4309 83.0321 37.0068C83.0321 39.6063 84.3889 41.3472 86.4061 41.3472C88.4594 41.3472 89.8051 39.6425 89.8051 37.0068H89.8051Z" fill="white"/>
<path id="Vector_6" d="M101.875 38.5263C102.071 40.2811 103.77 41.4333 106.093 41.4333C108.318 41.4333 109.919 40.281 109.919 38.6988C109.919 37.3253 108.953 36.5029 106.667 35.9392L104.381 35.3868C101.141 34.6019 99.6374 33.0823 99.6374 30.6164C99.6374 27.5632 102.29 25.4661 106.057 25.4661C109.784 25.4661 112.34 27.5632 112.426 30.6164H109.761C109.601 28.8504 108.146 27.7845 106.019 27.7845C103.892 27.7845 102.437 28.863 102.437 30.4327C102.437 31.6837 103.367 32.4199 105.64 32.9834L107.584 33.4621C111.204 34.3208 112.708 35.7792 112.708 38.3675C112.708 41.6781 110.078 43.7516 105.897 43.7516C101.985 43.7516 99.3432 41.7268 99.1725 38.5261L101.875 38.5263Z" fill="white"/>
<path id="Vector_7" d="M118.405 27.502V30.5551H120.851V32.6523H118.405V39.7647C118.405 40.8696 118.895 41.3845 119.97 41.3845C120.261 41.3794 120.55 41.359 120.839 41.3233V43.4079C120.355 43.4985 119.864 43.5395 119.372 43.5303C116.768 43.5303 115.753 42.5492 115.753 40.0472V32.6523H113.882V30.5551H115.753V27.502H118.405Z" fill="white"/>
<path id="Vector_8" d="M122.268 37.0066C122.268 32.9473 124.651 30.3965 128.368 30.3965C132.097 30.3965 134.469 32.9472 134.469 37.0066C134.469 41.077 132.11 43.6166 128.368 43.6166C124.628 43.6166 122.268 41.077 122.268 37.0066ZM131.779 37.0066C131.779 34.222 130.507 32.5785 128.368 32.5785C126.229 32.5785 124.958 34.2345 124.958 37.0066C124.958 39.8023 126.229 41.4332 128.368 41.4332C130.507 41.4332 131.779 39.8023 131.779 37.0066H131.779Z" fill="white"/>
<path id="Vector_9" d="M136.646 30.5552H139.164V32.7511H139.225C139.396 32.0653 139.796 31.4592 140.36 31.0347C140.923 30.6102 141.615 30.3932 142.319 30.4202C142.623 30.4191 142.927 30.4523 143.224 30.519V32.9961C142.84 32.8783 142.439 32.8243 142.037 32.836C141.654 32.8204 141.272 32.8883 140.917 33.0349C140.562 33.1815 140.243 33.4034 139.981 33.6854C139.72 33.9674 139.522 34.3028 139.402 34.6685C139.283 35.0343 139.243 35.4217 139.286 35.8043V43.4567H136.646L136.646 30.5552Z" fill="white"/>
<path id="Vector_10" d="M155.396 39.6673C155.041 42.0094 152.767 43.6166 149.858 43.6166C146.116 43.6166 143.794 41.102 143.794 37.0678C143.794 33.021 146.129 30.3965 149.747 30.3965C153.305 30.3965 155.543 32.8485 155.543 36.7603V37.6676H146.459V37.8276C146.417 38.3024 146.476 38.7807 146.633 39.2308C146.789 39.6809 147.04 40.0924 147.367 40.438C147.694 40.7837 148.091 41.0555 148.531 41.2355C148.971 41.4155 149.444 41.4995 149.919 41.4819C150.543 41.5406 151.169 41.3956 151.704 41.0687C152.239 40.7417 152.655 40.2502 152.889 39.6673L155.396 39.6673ZM146.471 35.8168H152.902C152.925 35.3898 152.861 34.9626 152.712 34.5619C152.564 34.1612 152.334 33.7956 152.038 33.4881C151.741 33.1807 151.385 32.9379 150.991 32.7752C150.597 32.6124 150.173 32.5331 149.747 32.5423C149.317 32.5398 148.891 32.6226 148.493 32.7861C148.095 32.9496 147.734 33.1905 147.429 33.495C147.124 33.7994 146.883 34.1613 146.719 34.5598C146.554 34.9583 146.47 35.3855 146.471 35.8168V35.8168Z" fill="white"/>
</g>
</g>
</g>
<g id="&#60;Group&#62;_4">
<g id="Group_4">
<path id="Vector_11" d="M53.7377 12.4418C54.2912 12.4019 54.8466 12.4858 55.3638 12.6874C55.8811 12.8889 56.3474 13.2031 56.7289 13.6072C57.1105 14.0114 57.3979 14.4955 57.5703 15.0245C57.7428 15.5536 57.7961 16.1145 57.7263 16.6667C57.7263 19.3831 56.2626 20.9445 53.7377 20.9445H50.6758V12.4418H53.7377ZM51.9924 19.742H53.5906C53.9861 19.7657 54.3819 19.7007 54.7492 19.5516C55.1165 19.4025 55.446 19.1732 55.7138 18.8803C55.9816 18.5873 56.1809 18.2382 56.2972 17.8583C56.4135 17.4783 56.4438 17.0772 56.3861 16.684C56.4397 16.2924 56.4062 15.8937 56.2881 15.5165C56.17 15.1394 55.9703 14.7931 55.7031 14.5025C55.4359 14.2119 55.108 13.9842 54.7427 13.8356C54.3775 13.6871 53.9841 13.6214 53.5906 13.6433H51.9924V19.742Z" fill="white"/>
<path id="Vector_12" d="M59.2135 17.7331C59.1733 17.3115 59.2214 16.886 59.3547 16.484C59.488 16.0821 59.7036 15.7125 59.9877 15.3991C60.2717 15.0856 60.6179 14.8351 61.0041 14.6637C61.3903 14.4923 61.808 14.4038 62.2303 14.4038C62.6526 14.4038 63.0703 14.4923 63.4565 14.6637C63.8427 14.8351 64.1889 15.0856 64.473 15.3991C64.757 15.7125 64.9726 16.0821 65.1059 16.484C65.2392 16.886 65.2873 17.3115 65.2471 17.7331C65.2881 18.1553 65.2406 18.5813 65.1076 18.9839C64.9746 19.3865 64.7592 19.7567 64.475 20.0708C64.1909 20.3849 63.8444 20.6359 63.4579 20.8077C63.0713 20.9794 62.6531 21.0682 62.2303 21.0682C61.8075 21.0682 61.3893 20.9794 61.0028 20.8077C60.6162 20.6359 60.2697 20.3849 59.9856 20.0708C59.7014 19.7567 59.486 19.3865 59.353 18.9839C59.2201 18.5813 59.1725 18.1553 59.2135 17.7331V17.7331ZM63.9485 17.7331C63.9485 16.3422 63.3256 15.5289 62.2324 15.5289C61.135 15.5289 60.5177 16.3422 60.5177 17.7332C60.5177 19.1352 61.135 19.9423 62.2324 19.9423C63.3256 19.9423 63.9485 19.1296 63.9485 17.7331H63.9485Z" fill="white"/>
<path id="Vector_13" d="M73.2673 20.9442H71.9576L70.6355 16.2184H70.5356L69.219 20.9442H67.9218L66.1585 14.5276H67.439L68.585 19.4239H68.6793L69.9945 14.5276H71.2057L72.5209 19.4239H72.6208L73.7612 14.5276H75.0237L73.2673 20.9442Z" fill="white"/>
<path id="Vector_14" d="M76.5068 14.5276H77.7221V15.547H77.8165C77.9765 15.1809 78.2464 14.874 78.5886 14.669C78.9308 14.4641 79.3282 14.3714 79.7255 14.4038C80.0367 14.3803 80.3493 14.4274 80.6399 14.5415C80.9306 14.6557 81.1919 14.8339 81.4046 15.0631C81.6172 15.2923 81.7757 15.5666 81.8683 15.8656C81.961 16.1646 81.9853 16.4806 81.9397 16.7904V20.9442H80.6772V17.1084C80.6772 16.0772 80.2305 15.5644 79.2968 15.5644C79.0854 15.5545 78.8745 15.5906 78.6783 15.6701C78.4822 15.7497 78.3056 15.8709 78.1605 16.0253C78.0154 16.1798 77.9053 16.3638 77.8378 16.5649C77.7703 16.7661 77.7469 16.9794 77.7693 17.1905V20.9443H76.5068L76.5068 14.5276Z" fill="white"/>
<path id="Vector_15" d="M83.9514 12.0227H85.2138V20.9442H83.9514V12.0227Z" fill="white"/>
<path id="Vector_16" d="M86.9689 17.7333C86.9287 17.3115 86.9768 16.8861 87.1101 16.4841C87.2435 16.0821 87.4591 15.7126 87.7432 15.3991C88.0273 15.0856 88.3735 14.8351 88.7597 14.6637C89.146 14.4923 89.5637 14.4038 89.986 14.4038C90.4083 14.4038 90.826 14.4923 91.2122 14.6637C91.5985 14.8351 91.9447 15.0856 92.2288 15.3991C92.5129 15.7126 92.7285 16.0821 92.8618 16.4841C92.9952 16.8861 93.0433 17.3115 93.0031 17.7333C93.0441 18.1554 92.9965 18.5814 92.8635 18.984C92.7305 19.3866 92.515 19.7569 92.2308 20.0709C91.9467 20.385 91.6002 20.636 91.2136 20.8078C90.827 20.9795 90.4088 21.0682 89.986 21.0682C89.5632 21.0682 89.145 20.9795 88.7584 20.8078C88.3718 20.636 88.0253 20.385 87.7411 20.0709C87.457 19.7569 87.2415 19.3866 87.1085 18.984C86.9755 18.5814 86.9279 18.1554 86.9689 17.7333V17.7333ZM91.7039 17.7333C91.7039 16.3424 91.0809 15.529 89.9877 15.529C88.8903 15.529 88.273 16.3424 88.273 17.7333C88.273 19.1353 88.8904 19.9424 89.9877 19.9424C91.081 19.9424 91.7039 19.1297 91.7039 17.7333H91.7039Z" fill="white"/>
<path id="Vector_17" d="M94.3321 19.1297C94.3321 17.9746 95.1895 17.3088 96.7114 17.2141L98.4442 17.1139V16.5601C98.4442 15.8824 97.9975 15.4997 97.1346 15.4997C96.4298 15.4997 95.9415 15.7592 95.8013 16.2129H94.5791C94.7081 15.1107 95.7417 14.4038 97.1928 14.4038C98.7966 14.4038 99.7012 15.2047 99.7012 16.5601V20.9443H98.4858V20.0426H98.386C98.1832 20.366 97.8985 20.6297 97.5609 20.8067C97.2233 20.9837 96.845 21.0677 96.4645 21.05C96.1959 21.078 95.9245 21.0493 95.6677 20.9657C95.4109 20.882 95.1744 20.7453 94.9735 20.5644C94.7726 20.3835 94.6118 20.1623 94.5013 19.9152C94.3908 19.6681 94.3332 19.4005 94.3321 19.1297V19.1297ZM98.4442 18.5814V18.0449L96.8821 18.1451C96.0011 18.2042 95.6015 18.5048 95.6015 19.0705C95.6015 19.648 96.101 19.9841 96.7878 19.9841C96.989 20.0045 97.1923 19.9841 97.3855 19.9242C97.5787 19.8642 97.7579 19.7658 97.9125 19.635C98.067 19.5041 98.1937 19.3434 98.2851 19.1624C98.3764 18.9814 98.4306 18.7838 98.4442 18.5814V18.5814Z" fill="white"/>
<path id="Vector_18" d="M101.36 17.7331C101.36 15.7056 102.4 14.4211 104.016 14.4211C104.416 14.4027 104.812 14.4987 105.16 14.6981C105.507 14.8974 105.791 15.1918 105.978 15.5469H106.072V12.0227H107.334V20.9442H106.125V19.9304H106.025C105.824 20.2831 105.53 20.5739 105.176 20.7712C104.822 20.9685 104.421 21.0649 104.016 21.05C102.389 21.0501 101.36 19.7656 101.36 17.7331ZM102.665 17.7331C102.665 19.0941 103.304 19.9131 104.374 19.9131C105.438 19.9131 106.096 19.0823 106.096 17.7387C106.096 16.4014 105.431 15.5588 104.374 15.5588C103.311 15.5588 102.665 16.3833 102.665 17.7331H102.665Z" fill="white"/>
<path id="Vector_19" d="M112.558 17.7331C112.518 17.3115 112.566 16.886 112.699 16.484C112.832 16.0821 113.048 15.7125 113.332 15.3991C113.616 15.0856 113.962 14.8351 114.348 14.6637C114.735 14.4923 115.152 14.4038 115.575 14.4038C115.997 14.4038 116.415 14.4923 116.801 14.6637C117.187 14.8351 117.533 15.0856 117.817 15.3991C118.101 15.7125 118.317 16.0821 118.45 16.484C118.584 16.886 118.632 17.3115 118.591 17.7331C118.632 18.1553 118.585 18.5813 118.452 18.9839C118.319 19.3865 118.103 19.7567 117.819 20.0708C117.535 20.3849 117.189 20.6359 116.802 20.8077C116.416 20.9794 115.997 21.0682 115.575 21.0682C115.152 21.0682 114.734 20.9794 114.347 20.8077C113.96 20.6359 113.614 20.3849 113.33 20.0708C113.046 19.7567 112.83 19.3865 112.697 18.9839C112.564 18.5813 112.517 18.1553 112.558 17.7331V17.7331ZM117.293 17.7331C117.293 16.3422 116.67 15.5289 115.577 15.5289C114.479 15.5289 113.862 16.3422 113.862 17.7332C113.862 19.1352 114.479 19.9423 115.577 19.9423C116.67 19.9423 117.293 19.1296 117.293 17.7331Z" fill="white"/>
<path id="Vector_20" d="M120.285 14.5276H121.501V15.547H121.595C121.755 15.1809 122.025 14.874 122.367 14.669C122.709 14.4641 123.107 14.3714 123.504 14.4038C123.815 14.3803 124.128 14.4274 124.418 14.5415C124.709 14.6557 124.97 14.8339 125.183 15.0631C125.396 15.2923 125.554 15.5666 125.647 15.8656C125.739 16.1646 125.764 16.4806 125.718 16.7904V20.9442H124.456V17.1084C124.456 16.0772 124.009 15.5644 123.075 15.5644C122.864 15.5545 122.653 15.5906 122.457 15.6701C122.261 15.7497 122.084 15.8709 121.939 16.0253C121.794 16.1798 121.684 16.3638 121.616 16.5649C121.549 16.7661 121.525 16.9794 121.548 17.1905V20.9443H120.285V14.5276Z" fill="white"/>
<path id="Vector_21" d="M132.852 12.9302V14.557H134.238V15.6236H132.852V18.9231C132.852 19.5952 133.128 19.8896 133.756 19.8896C133.917 19.889 134.078 19.8793 134.238 19.8603V20.9152C134.011 20.9558 133.781 20.9775 133.551 20.9799C132.147 20.9799 131.588 20.4844 131.588 19.2473V15.6236H130.572V14.5569H131.588V12.9302H132.852Z" fill="white"/>
<path id="Vector_22" d="M135.962 12.0227H137.214V15.5588H137.314C137.481 15.1892 137.759 14.8806 138.108 14.6749C138.457 14.4692 138.861 14.3765 139.264 14.4093C139.574 14.3924 139.883 14.4443 140.171 14.5612C140.458 14.6781 140.716 14.8572 140.927 15.0856C141.137 15.3141 141.295 15.5864 141.388 15.883C141.481 16.1795 141.509 16.4932 141.467 16.8015V20.9442H140.203V17.1139C140.203 16.0889 139.728 15.5699 138.836 15.5699C138.619 15.552 138.4 15.5819 138.196 15.6575C137.992 15.7331 137.806 15.8526 137.653 16.0076C137.5 16.1625 137.382 16.3492 137.308 16.5546C137.234 16.76 137.206 16.9791 137.225 17.1966V20.9442H135.962L135.962 12.0227Z" fill="white"/>
<path id="Vector_23" d="M148.829 19.2116C148.657 19.7981 148.285 20.3054 147.779 20.6447C147.272 20.9841 146.662 21.1339 146.057 21.068C145.635 21.0792 145.216 20.9982 144.829 20.8307C144.442 20.6633 144.096 20.4133 143.815 20.0982C143.534 19.783 143.324 19.4103 143.201 19.0059C143.078 18.6014 143.044 18.175 143.102 17.756C143.045 17.3358 143.08 16.9084 143.203 16.5028C143.326 16.0971 143.534 15.7227 143.814 15.4048C144.093 15.0869 144.438 14.833 144.824 14.6603C145.21 14.4876 145.628 14.4001 146.051 14.4037C147.831 14.4037 148.905 15.6235 148.905 17.6384V18.0803H144.388V18.1513C144.368 18.3867 144.397 18.6237 144.474 18.8471C144.551 19.0705 144.674 19.2753 144.834 19.4483C144.995 19.6214 145.189 19.759 145.406 19.8521C145.622 19.9453 145.856 19.9921 146.091 19.9895C146.393 20.0259 146.699 19.9713 146.97 19.8328C147.241 19.6943 147.465 19.478 147.613 19.2116L148.829 19.2116ZM144.388 17.1437H147.619C147.635 16.9284 147.605 16.7121 147.533 16.5087C147.461 16.3053 147.347 16.1194 147.198 15.9628C147.05 15.8063 146.871 15.6826 146.672 15.5997C146.473 15.5168 146.259 15.4765 146.044 15.4815C145.826 15.4787 145.609 15.5198 145.407 15.6024C145.205 15.685 145.021 15.8073 144.866 15.9622C144.712 16.1172 144.59 16.3015 144.508 16.5044C144.426 16.7073 144.385 16.9247 144.388 17.1437H144.388Z" fill="white"/>
</g>
</g>
</g>
</svg>
