<svg width="14" height="15" viewBox="0 0 14 15" fill="none" xmlns="http://www.w3.org/2000/svg">
<g id="Icon" clip-path="url(#clip0_934_4338)">
<path id="Vector" d="M1.98242 12.0488C1.98242 12.0488 1.65202 11.7184 0.991211 11.0576C0.330404 10.3968 0 9.1276 0 7.25C0 5.3724 0.660807 3.77279 1.98242 2.45117C3.30404 1.12956 4.90365 0.46875 6.78125 0.46875C8.65885 0.46875 10.2585 1.12956 11.5801 2.45117C12.9017 3.77279 13.5625 5.3724 13.5625 7.25C13.5625 9.1276 12.9017 10.7272 11.5801 12.0488C10.2585 13.3704 8.65885 14.0312 6.78125 14.0312C4.90365 14.0312 3.30404 13.3704 1.98242 12.0488ZM10.6504 11.1191C10.6504 11.1191 10.917 10.8525 11.4502 10.3193C11.9834 9.78613 12.25 8.76302 12.25 7.25C12.25 5.73698 11.7168 4.44727 10.6504 3.38086C9.58398 2.31445 8.29427 1.78125 6.78125 1.78125C5.26823 1.78125 3.97852 2.31445 2.91211 3.38086C1.8457 4.44727 1.3125 5.73698 1.3125 7.25C1.3125 8.76302 1.8457 10.0527 2.91211 11.1191C3.97852 12.1855 5.26823 12.7188 6.78125 12.7188C8.29427 12.7188 9.58398 12.1855 10.6504 11.1191ZM9.29688 7.46875L5.96094 10.832C5.79688 10.9961 5.64193 10.9961 5.49609 10.832L4.86719 10.2305C4.72135 10.0664 4.72135 9.91146 4.86719 9.76562L7.38281 7.25L4.86719 4.73438C4.72135 4.58854 4.72135 4.43359 4.86719 4.26953L5.49609 3.66797C5.64193 3.50391 5.79688 3.50391 5.96094 3.66797L9.29688 7.03125C9.46094 7.17708 9.46094 7.32292 9.29688 7.46875Z" fill="#2669E5"/>
</g>
<defs>
<clipPath id="clip0_934_4338">
<rect width="14" height="14.5" fill="white" transform="matrix(1 0 0 -1 0 14.5)"/>
</clipPath>
</defs>
</svg>
