<svg width="651" height="489" viewBox="0 0 651 489" fill="none" xmlns="http://www.w3.org/2000/svg">
<path d="M111.464 463.239C111.464 463.239 30.4601 405.564 7.14658 307.371C-16.1669 209.178 19.4114 90.1341 86.9198 30.041C154.428 -30.0522 275.934 10.4054 329.932 60.7252L383.945 111.045C383.945 111.045 435.496 139.223 502.989 136.82C570.483 134.418 630.635 226.426 646.593 298.844C662.55 371.261 624.495 466.977 624.495 466.977L111.464 463.239Z" fill="#DDECFF"/>
<g style="mix-blend-mode:multiply">
<path d="M74.6549 477.966C74.6549 477.966 18.1953 447.282 3.46861 376.095C-11.2581 304.909 52.5575 239.863 58.6973 204.269C64.8372 168.676 51.2821 124.496 107.786 90.0746C164.29 55.6531 264.886 68.0365 302.941 59.4645C340.996 50.8925 385.146 -8.05868 461.271 5.43706C537.396 18.9328 611.059 59.4497 614.677 147.81C618.296 236.17 590.133 238.632 618.37 286.504C646.607 334.377 657.641 367.509 644.146 416.597C630.65 465.686 602.413 479.167 602.413 479.167L74.6549 477.966Z" fill="#DDECFF"/>
</g>
<g style="mix-blend-mode:multiply">
<path d="M192.528 462.008C189.028 458.33 137.507 355.229 194.871 260.729C252.235 166.229 396.239 177.263 453.589 214.087C510.938 250.911 539.057 298.784 544.915 349.045C550.773 399.305 512.125 477.907 512.125 477.907L192.528 462.008Z" fill="#DDECFF"/>
</g>
<path d="M596.421 240.575H530.247C526.152 240.575 522.832 243.895 522.832 247.99V281.033C522.832 285.128 526.152 288.448 530.247 288.448H596.421C600.516 288.448 603.836 285.128 603.836 281.033V247.99C603.836 243.895 600.516 240.575 596.421 240.575Z" fill="#F1AA27"/>
<path d="M563.334 307.164L573.834 282.308H552.849L563.334 307.164Z" fill="#F1AA27"/>
<path d="M563.097 256.296H582.036V259.069L591.319 253.715L582.036 248.346V251.12H563.097V256.296Z" fill="#223A7A"/>
<path d="M591.319 267.181H572.381V264.408L563.097 269.762L572.381 275.116V272.342H591.319V267.181Z" fill="white"/>
<path d="M551.455 272.06L550.565 272.387C548.834 270.364 547.396 268.107 546.294 265.683C545.372 263.198 544.87 260.577 544.811 257.927L545.464 257.645L541.459 248.065C540.68 248.668 540.021 249.412 539.517 250.26C537.247 254.101 537.47 259.974 539.754 265.713C542.038 271.452 544.47 276.584 548.919 279.802C549.835 280.559 550.894 281.123 552.033 281.459C553.173 281.796 554.368 281.898 555.548 281.76L551.455 272.06Z" fill="#223A7A"/>
<path d="M554.332 270.933L553.086 271.378L557.195 281.196C557.62 281.056 558.032 280.877 558.425 280.662C558.936 280.384 559.328 279.93 559.527 279.384C559.726 278.837 559.72 278.237 559.508 277.696L557.372 272.312C557.146 271.731 556.702 271.261 556.133 271.003C555.565 270.745 554.919 270.72 554.332 270.933Z" fill="#223A7A"/>
<path d="M544.559 246.33C544.004 246.535 543.468 246.788 542.957 247.086L547.051 256.874L548.43 256.31C549 256.064 549.454 255.608 549.697 255.037C549.94 254.465 549.953 253.822 549.735 253.241L547.584 247.813C547.375 247.218 546.941 246.729 546.375 246.452C545.809 246.174 545.157 246.13 544.559 246.33Z" fill="#223A7A"/>
<path d="M173.396 445.443V334.986C173.396 334.986 172.165 305.221 187.826 296.634C203.487 288.048 269.394 292.645 269.394 292.645V445.399L173.396 445.443Z" fill="#1C83FF"/>
<path d="M290.053 189.232C290.053 189.232 286.064 222.69 284.521 225.448L283.038 228.207L275.4 233.427C275.4 233.427 290.127 254.294 308.22 257.66C326.314 261.027 324.801 250.245 324.801 250.245L322.027 244.402L325.72 212.501C325.72 212.501 292.811 197.523 290.053 189.232Z" fill="#FF9D8C"/>
<path d="M265.805 236.185L277.773 230.965C277.773 230.965 285.441 243.541 303.237 250.912C321.034 258.283 321.345 253.982 322.265 250.912C322.769 248.775 322.661 246.539 321.953 244.461L323.273 233.723L330.392 236.096L355.1 435.937L291.581 439.007L265.805 236.185Z" fill="white"/>
<path d="M324.415 233.931C324.415 233.931 328.716 243.853 332.705 267.181C336.695 290.509 340.373 329.766 341.292 356.772C342.212 383.778 342.775 445.443 342.775 445.443H422.86C423.779 445.443 429.311 415.07 429.311 415.07C429.311 415.07 394.371 385.098 392.561 380.189C391.33 376.926 391.953 316.27 386.733 288.344C381.513 260.418 374.765 254.797 360.616 247.812C346.038 240.649 324.415 233.931 324.415 233.931Z" fill="black"/>
<path d="M366.148 410.295C365.952 410.295 365.763 410.217 365.624 410.078C365.485 409.939 365.407 409.751 365.407 409.554C365.407 407.359 365.006 376.185 364.636 346.035C364.265 315.885 363.864 284.726 363.864 282.516C363.864 282.319 363.942 282.131 364.082 281.992C364.221 281.853 364.409 281.774 364.606 281.774C364.803 281.774 364.991 281.853 365.13 281.992C365.269 282.131 365.347 282.319 365.347 282.516C365.347 284.711 365.748 315.885 366.119 346.02C366.489 376.156 366.89 407.344 366.89 409.554C366.886 409.749 366.807 409.936 366.668 410.074C366.53 410.212 366.344 410.292 366.148 410.295Z" fill="#8593B6"/>
<path d="M206.587 402.791L205.979 445.443H299.248C299.248 445.443 303.237 409.242 301.71 405.861C300.182 402.48 206.587 402.791 206.587 402.791Z" fill="black"/>
<g style="mix-blend-mode:multiply">
<path d="M310.4 224.529C314.37 227.512 318.77 229.872 323.451 231.529L325.646 212.561C325.646 212.561 300.983 201.26 292.619 192.851C294.369 202.402 298.669 215.052 310.4 224.529Z" fill="#8E9BBB"/>
</g>
<path d="M354.491 126.944C358.62 134.553 361.225 142.896 362.159 151.503C363.39 164.999 362.159 199.672 351.11 214.399C340.061 229.126 317 224.78 306.619 215.882C297.038 207.725 287.591 198.708 285.144 180.912C282.697 163.115 290.35 129.361 312.136 122.302C333.922 115.242 354.491 126.944 354.491 126.944Z" fill="#FF9D8C"/>
<path d="M382.18 426.164C382.18 426.164 381.097 426.164 379.451 426.164H378.191L372.733 426.015H371.428C369.5 426.015 367.854 426.208 366.311 426.119C365.985 426.119 365.51 426.119 365.125 426.119C364.962 426.133 364.798 426.133 364.635 426.119C363.921 425.957 363.236 425.687 362.604 425.318C352.196 422.67 341.515 421.247 330.777 421.077C317.074 421.077 304.78 422.07 302.777 420.395C300.775 418.719 299.544 401.471 311.246 400.344L325.631 405.801C325.631 405.801 358.481 401.901 370.523 410.784C382.566 419.668 382.18 426.164 382.18 426.164Z" fill="#FF9D8C"/>
<path d="M366.252 426.016C365.926 426.016 365.451 426.016 365.066 426.016C364.689 425.421 364.267 424.856 363.805 424.325C360.097 420.543 351.14 418.096 347.892 417.31C347.749 417.275 347.626 417.185 347.549 417.061C347.471 416.936 347.445 416.786 347.477 416.643C347.494 416.571 347.525 416.503 347.569 416.443C347.613 416.383 347.668 416.332 347.731 416.293C347.795 416.255 347.865 416.229 347.939 416.218C348.012 416.206 348.087 416.21 348.159 416.227C352.89 417.369 362.989 420.291 365.777 425.126C365.866 425.259 366.104 425.778 366.252 426.016Z" fill="#223A7A"/>
<path d="M372.718 425.941C372.288 425.941 371.843 425.941 371.413 425.941C367.364 418.526 360.75 416.45 352.564 413.81L352.074 413.647C352.005 413.623 351.941 413.587 351.886 413.539C351.831 413.49 351.786 413.432 351.754 413.367C351.722 413.301 351.702 413.23 351.698 413.157C351.693 413.084 351.702 413.011 351.726 412.942C351.749 412.873 351.786 412.809 351.834 412.754C351.882 412.699 351.94 412.654 352.006 412.622C352.071 412.59 352.142 412.571 352.215 412.566C352.288 412.561 352.361 412.57 352.43 412.594L352.905 412.757C361.551 415.486 368.521 417.71 372.718 425.941Z" fill="#223A7A"/>
<path d="M379.436 426.104H378.176C375.943 422.109 372.887 418.634 369.211 415.909C365.534 413.183 361.321 411.27 356.849 410.295C356.775 410.284 356.704 410.259 356.641 410.22C356.577 410.181 356.522 410.129 356.479 410.068C356.436 410.007 356.406 409.937 356.39 409.864C356.375 409.791 356.375 409.716 356.39 409.642C356.422 409.502 356.505 409.379 356.623 409.297C356.741 409.215 356.885 409.179 357.027 409.197C368.106 411.274 377.049 420.306 379.436 426.104Z" fill="#223A7A"/>
<path d="M292.5 165.77C297.472 162.913 301.479 158.637 304.008 153.491C306.843 148.212 308.269 142.292 308.146 136.302C308.146 136.302 316.748 134.923 329.636 138.764C342.523 142.605 357.814 147.81 370.746 140.455C383.678 133.099 383.633 121.279 377.345 116.37C370.301 110.868 356.33 114.219 356.33 114.219C356.33 114.219 361.699 108.999 358.777 105.929C355.856 102.859 345.282 106.849 345.282 106.849C345.282 106.849 332.394 96.5711 307.998 97.8021C283.602 99.033 271.945 116.058 270.566 135.101C269.187 154.143 276.083 173.141 276.083 173.141L292.5 165.77Z" fill="black"/>
<g style="mix-blend-mode:multiply">
<path d="M341.989 170.382C340.61 173.779 340.64 177.798 340.299 181.357C340.032 184.175 339.513 187.452 342.093 189.351C343.324 190.255 349.138 192.702 346.142 194.69C344.769 195.26 343.262 195.43 341.797 195.179C340.892 195.179 339.987 195.179 339.097 195.031C338.208 194.882 337.184 194.675 336.235 194.66C336.115 194.665 336 194.707 335.906 194.782C335.812 194.857 335.744 194.96 335.713 195.076C335.681 195.191 335.688 195.314 335.731 195.426C335.774 195.538 335.852 195.633 335.953 195.698C337.688 196.599 339.619 197.058 341.574 197.033C343.172 197.214 344.789 196.93 346.231 196.217C346.757 196.028 347.228 195.71 347.601 195.294C347.974 194.877 348.237 194.374 348.367 193.829C348.371 193.171 348.203 192.522 347.881 191.947C347.559 191.373 347.092 190.892 346.527 190.552C345.371 189.692 343.947 189.291 342.775 188.446C341.144 187.289 341.292 185.332 341.396 183.507C341.663 179.147 342.672 174.861 343.057 170.516C343.057 169.863 342.197 169.863 341.989 170.382Z" fill="#8E9BBB"/>
</g>
<path d="M354.536 180.571C354.076 183.166 352.193 185.02 350.339 184.664C348.485 184.308 347.373 181.965 347.788 179.384C348.203 176.804 350.131 174.935 351.985 175.291C353.839 175.647 354.996 177.99 354.536 180.571Z" fill="black"/>
<path d="M331.059 178.525C330.644 181.313 328.672 183.344 326.61 182.974C324.549 182.603 323.303 180.171 323.718 177.383C324.133 174.594 326.106 172.578 328.167 172.933C330.229 173.289 331.475 175.736 331.059 178.525Z" fill="black"/>
<path d="M349.063 169.923C350.547 170.16 351.955 169.923 353.394 170.012L354.432 170.115H354.313H354.536L355.085 170.219C355.381 170.293 355.678 170.412 355.989 170.486C356.276 170.555 356.569 170.594 356.864 170.605L357.339 170.531H357.042C357.24 170.542 357.438 170.542 357.635 170.531C358.033 170.41 358.369 170.141 358.573 169.779C358.778 169.417 358.835 168.991 358.733 168.588C358.672 168.362 358.566 168.15 358.422 167.965C358.422 167.876 358.288 167.802 358.229 167.728L358.407 167.921L358.214 167.668C358.133 167.535 358.021 167.423 357.888 167.342L357.532 167.075C357.126 166.822 356.679 166.641 356.212 166.541C355.348 166.325 354.462 166.21 353.572 166.2C352.698 166.21 351.826 166.279 350.962 166.408C350.159 166.5 349.391 166.785 348.722 167.238C348.473 167.39 348.274 167.611 348.15 167.875C348.026 168.139 347.983 168.433 348.025 168.721C348.064 169.002 348.183 169.266 348.366 169.481C348.55 169.697 348.792 169.855 349.063 169.937V169.923Z" fill="black"/>
<path d="M332.705 165.814C332.511 165.696 332.307 165.592 332.097 165.503C331.934 165.429 331.46 165.177 331.816 165.37L331.415 165.162C330.824 164.872 330.202 164.648 329.561 164.495C328.156 164.144 326.7 164.044 325.261 164.198C323.759 164.315 322.304 164.771 321.004 165.533C320.807 165.639 320.622 165.768 320.455 165.918L320.159 166.319V166.185C319.958 166.324 319.795 166.511 319.684 166.728C319.573 166.945 319.517 167.187 319.521 167.431C319.521 167.659 319.583 167.884 319.701 168.08C319.818 168.275 319.987 168.436 320.188 168.543C320.423 168.642 320.675 168.693 320.93 168.693C321.185 168.693 321.437 168.642 321.672 168.543H320.9C321.282 168.625 321.676 168.625 322.057 168.543C322.057 168.543 322.472 168.439 322.205 168.543C321.938 168.647 322.621 168.543 322.695 168.543C322.769 168.543 323.244 168.543 322.695 168.543H322.962L323.659 168.469C324.667 168.469 325.676 168.35 326.699 168.321C327.722 168.291 328.597 168.321 329.547 168.321H330.748C330.881 168.321 330.97 168.321 330.748 168.321H331L331.504 168.484C331.835 168.56 332.181 168.521 332.486 168.372C332.791 168.224 333.036 167.975 333.18 167.668C333.303 167.35 333.312 167 333.207 166.676C333.102 166.352 332.888 166.074 332.602 165.889L332.705 165.814Z" fill="black"/>
<path d="M339.987 208.467C341.509 205.651 343.955 203.446 346.913 202.223C344.347 201.956 332.216 200.844 329.116 202.579C325.691 204.522 329.754 212.352 336.843 212.738C337.537 212.776 338.234 212.736 338.919 212.619C338.979 211.176 339.343 209.761 339.987 208.467Z" fill="black"/>
<path d="M283.913 192.005C283.913 192.005 285.144 196.751 292.203 202.283C297.564 206.156 303.376 209.363 309.511 211.833L310.326 208.259C310.326 208.259 299.737 203.662 294.828 198.59C289.919 193.518 289.311 190.774 289.311 190.774L283.913 192.005Z" fill="#DEE1EB"/>
<path d="M311.527 205.62C313.667 205.495 315.779 206.146 317.476 207.454C319.174 208.762 320.342 210.638 320.767 212.738C321.167 215.704 318.439 218.908 312.061 216.045C304.127 212.486 305.847 205.872 311.527 205.62Z" fill="black"/>
<path d="M288.362 156.872C288.362 156.872 290.809 139.238 302.629 127.211C325.186 104.357 344.362 105.736 344.362 105.736C344.362 105.736 344.199 102.518 336.947 100.056C330.184 97.7574 327.129 98.9884 327.129 98.9884C327.129 98.9884 308.561 100.471 292.915 117.853C277.269 135.234 275.623 157.346 275.623 157.346L288.362 156.872Z" fill="#DEE1EB"/>
<path d="M286.672 154.721C271.841 152.215 263.655 163.768 263.047 175.484C262.439 187.2 270.951 195.906 282.222 195.06C307.686 193.073 304.78 157.791 286.672 154.721Z" fill="white"/>
<path d="M279.316 183.73C277.451 183.758 275.616 183.269 274.013 182.316C272.411 181.363 271.104 179.983 270.239 178.331C269.248 176.542 268.764 174.517 268.84 172.473C268.915 170.429 269.548 168.445 270.669 166.734C270.71 166.674 270.763 166.622 270.824 166.582C270.885 166.542 270.953 166.514 271.024 166.5C271.096 166.486 271.17 166.487 271.241 166.501C271.312 166.516 271.38 166.545 271.441 166.586C271.501 166.627 271.553 166.679 271.593 166.74C271.633 166.801 271.661 166.869 271.675 166.941C271.688 167.012 271.688 167.086 271.673 167.157C271.658 167.229 271.63 167.296 271.589 167.357C270.593 168.891 270.032 170.668 269.967 172.496C269.901 174.325 270.334 176.136 271.218 177.738C272.002 179.264 273.21 180.53 274.696 181.385C276.183 182.24 277.885 182.648 279.597 182.558C281.194 182.552 282.764 182.153 284.169 181.395C285.573 180.637 286.769 179.544 287.65 178.213C288.685 176.615 289.334 174.798 289.545 172.906C289.756 171.014 289.524 169.099 288.866 167.312C288.257 165.635 287.122 164.2 285.631 163.219C284.14 162.239 282.372 161.765 280.591 161.87C280.519 161.88 280.445 161.876 280.375 161.858C280.304 161.839 280.238 161.807 280.18 161.763C280.122 161.719 280.073 161.663 280.037 161.6C280.001 161.537 279.977 161.467 279.968 161.395C279.951 161.25 279.991 161.104 280.08 160.988C280.168 160.871 280.298 160.794 280.443 160.772C282.479 160.615 284.51 161.132 286.223 162.245C287.936 163.357 289.235 165.003 289.919 166.927C290.624 168.874 290.87 170.957 290.639 173.015C290.407 175.073 289.704 177.049 288.585 178.791C287.605 180.259 286.283 181.466 284.733 182.308C283.183 183.15 281.451 183.603 279.686 183.626L279.316 183.73Z" fill="#818FB3"/>
<path d="M268.564 231.885C268.564 231.885 223.775 242.933 208.129 260.73C192.483 278.526 185.112 366.278 184.801 382.547C184.49 398.816 195.85 405.564 202.598 410.162C209.345 414.759 239.11 423.049 263.047 424.28C286.983 425.511 309.688 424.28 309.688 424.28C309.966 419.778 311.195 415.386 313.292 411.393C316.703 404.274 321.034 402.791 321.034 402.791L300.479 395.376C300.479 395.376 296.875 330.863 291.269 299.719C284.833 263.8 268.564 231.885 268.564 231.885Z" fill="black"/>
<path d="M342.82 385.128C342.722 385.148 342.621 385.148 342.523 385.128C342.345 385.047 342.205 384.899 342.136 384.715C342.066 384.532 342.072 384.328 342.152 384.149C346.35 374.673 350.695 356.09 353.142 343.039L353.349 341.986C354.091 338.145 355.011 333.37 353.172 330.122C352.222 328.446 350.102 324.798 348.07 321.298C346.038 317.798 343.962 314.224 343.398 313.2C342.316 311.198 345.727 305.785 350.65 298.503C351.97 296.516 353.127 294.81 353.794 293.654C355.559 290.688 354.388 287.825 353.038 284.607L352.519 283.406C351.303 280.44 349.909 277.385 348.559 274.508L346.913 270.919C346.186 269.332 345.43 267.73 344.733 266.084C340.489 256.022 335.661 246.217 330.273 236.719C330.175 236.548 330.148 236.345 330.198 236.153C330.248 235.962 330.371 235.798 330.54 235.696C330.624 235.646 330.716 235.613 330.812 235.599C330.909 235.586 331.007 235.591 331.101 235.616C331.195 235.641 331.283 235.685 331.36 235.744C331.437 235.804 331.501 235.878 331.549 235.963C336.998 245.492 341.885 255.332 346.186 265.431L348.366 270.251L350.013 273.825C351.362 276.791 352.756 279.757 354.002 282.827L354.462 283.925C355.841 287.217 357.265 290.613 355.144 294.306C354.447 295.507 353.29 297.272 351.941 299.245C349.375 303.071 344.021 311.035 344.763 312.399C345.311 313.408 347.299 316.849 349.405 320.467C351.511 324.086 353.587 327.63 354.521 329.365C356.627 333.132 355.648 338.19 354.862 342.268L354.655 343.306C353.765 348.067 349.034 372.389 343.561 384.743C343.491 384.874 343.382 384.981 343.25 385.05C343.118 385.119 342.968 385.146 342.82 385.128Z" fill="#8593B6"/>
<path d="M299.129 387.738C299.032 387.739 298.936 387.72 298.846 387.682C298.757 387.644 298.676 387.587 298.61 387.516C295.11 384.001 278.307 354.889 277.047 349.416C276.364 346.45 278.085 338.812 279.746 331.457C281.036 325.762 282.371 319.874 282 318.287C281.422 315.899 277.121 312.355 272.968 308.988C267.941 304.88 262.75 300.639 261.742 296.813C260.6 292.467 261.578 265.283 262.231 247.294C262.453 240.813 262.646 235.711 262.646 233.946C262.646 233.749 262.724 233.561 262.863 233.422C263.002 233.283 263.191 233.205 263.388 233.205C263.584 233.205 263.773 233.283 263.912 233.422C264.051 233.561 264.129 233.749 264.129 233.946C264.129 235.785 263.936 240.916 263.714 247.397C263.106 264.215 262.097 292.363 263.18 296.501C264.07 299.853 269.29 304.124 273.903 307.906C278.515 311.688 282.801 315.128 283.439 317.991C283.898 319.918 282.638 325.406 281.199 331.842C279.716 338.709 277.892 346.465 278.5 349.149C279.731 354.503 296.297 383.082 299.663 386.537C299.732 386.605 299.787 386.685 299.824 386.775C299.862 386.864 299.881 386.959 299.881 387.056C299.881 387.153 299.862 387.248 299.824 387.338C299.787 387.427 299.732 387.507 299.663 387.575C299.59 387.638 299.505 387.684 299.413 387.712C299.321 387.741 299.225 387.749 299.129 387.738Z" fill="#8593B6"/>
<path d="M238.814 374.999H238.71C238.612 374.986 238.518 374.954 238.433 374.904C238.347 374.855 238.273 374.789 238.213 374.71C238.154 374.631 238.111 374.541 238.087 374.446C238.062 374.35 238.057 374.251 238.072 374.153C238.621 370.297 247.134 293.475 247.519 287.588C247.533 287.391 247.624 287.208 247.773 287.079C247.922 286.949 248.116 286.884 248.313 286.898C248.509 286.912 248.692 287.003 248.822 287.152C248.951 287.301 249.016 287.495 249.002 287.691C248.602 293.624 240.104 370.505 239.54 374.361C239.515 374.536 239.429 374.697 239.295 374.814C239.162 374.931 238.991 374.997 238.814 374.999Z" fill="#8593B6"/>
<path d="M299.871 395.865C299.778 395.886 299.682 395.886 299.589 395.865C297.705 395.109 289.371 392.291 278.826 388.732C257.53 381.554 228.403 371.721 222.811 368.844C222.638 368.75 222.509 368.591 222.451 368.403C222.393 368.215 222.41 368.011 222.5 367.836C222.592 367.663 222.747 367.534 222.933 367.476C223.119 367.418 223.32 367.435 223.494 367.524C228.936 370.357 259.25 380.575 279.286 387.338C289.86 390.897 298.225 393.715 300.152 394.501C300.333 394.576 300.476 394.72 300.551 394.9C300.626 395.081 300.627 395.284 300.553 395.465C300.487 395.588 300.389 395.691 300.268 395.761C300.148 395.832 300.01 395.868 299.871 395.865Z" fill="#8593B6"/>
<path d="M289.623 426.46C270.892 426.46 234.557 423.079 206.958 413.321C206.86 413.288 206.77 413.237 206.693 413.171C206.615 413.104 206.551 413.022 206.505 412.93C206.459 412.839 206.431 412.739 206.424 412.637C206.416 412.535 206.429 412.432 206.461 412.334C206.493 412.237 206.544 412.147 206.611 412.069C206.678 411.992 206.76 411.928 206.851 411.882C206.943 411.836 207.042 411.808 207.145 411.8C207.247 411.793 207.35 411.805 207.447 411.838C242.314 424.177 291.091 426.282 300.167 424.251C300.265 424.229 300.365 424.227 300.464 424.245C300.562 424.262 300.655 424.299 300.739 424.352C300.823 424.406 300.896 424.476 300.953 424.558C301.01 424.639 301.051 424.732 301.072 424.829C301.093 424.926 301.095 425.027 301.078 425.125C301.061 425.223 301.024 425.317 300.97 425.401C300.916 425.485 300.847 425.558 300.765 425.615C300.683 425.672 300.591 425.712 300.494 425.734C296.9 426.312 293.261 426.555 289.623 426.46Z" fill="#8593B6"/>
<path d="M75.1889 242.236C81.0024 247.352 88.3732 250.63 93.4749 256.547C95.4918 258.876 97.2863 261.352 99.1549 263.799C100.519 265.579 104.138 268.515 104.731 270.755C104.983 271.734 104.924 270.399 104.731 269.42V269.301C104.227 264.778 103.856 260.24 103.693 255.687C103.53 251.134 103.827 246.596 103.545 242.058C103.13 235.681 101.142 229.482 95.9219 225.477C93.371 223.534 90.0787 222.333 87.7355 220.168C85.3922 218.003 86.4007 215.719 87.7355 213.45C89.1515 211.385 90.228 209.107 90.924 206.702C91.2716 203.852 90.5819 200.973 88.9812 198.59C85.941 193.488 79.1931 187.793 72.816 188.564C67.4918 189.202 66.8838 195.342 66.9728 199.613C67.0618 203.884 67.4473 207.918 67.4918 212.085C67.5363 216.253 66.8096 220.539 66.7503 224.795C66.4685 232.032 69.8054 237.549 75.1889 242.236Z" fill="#F1AA27"/>
<path d="M129.187 308.617C130.769 304.788 132.695 301.11 134.941 297.628C138.085 292.808 141.555 288.107 143.661 282.723C145.767 277.34 145.5 271.304 145.708 265.505C145.871 261.249 147.191 256.992 146.79 252.706C146.627 250.66 145.441 247.353 142.801 247.679C140.725 247.946 139.509 250.512 138.708 252.128C137.406 255.023 136.282 257.995 135.341 261.026C134.941 262.198 134.555 263.384 134.051 264.511C133.754 265.164 132.805 266.766 131.93 266.558C130.447 266.173 131.782 260.018 131.93 258.935C133.057 253.463 134.763 248.376 134.985 242.74C135.326 234.569 134.704 224.84 126.71 220.376C124.619 219.204 121.979 218.507 119.992 220.257C118.004 222.007 117.471 224.973 117.189 227.42C116.299 234.969 118.064 242.117 120.496 249.206C122.483 255.139 124.856 261.071 125.034 267.389C125.197 273.425 122.068 278.764 120.585 284.473C119.083 289.951 118.452 295.632 118.716 301.306C118.716 304.984 118.835 308.632 119.102 312.31C119.354 315.691 119.651 319.058 120.066 322.425C120.066 323.107 120.214 323.819 120.318 324.53C119.013 321.401 118.553 317.827 117.485 314.683C115.572 309.107 113.363 303.634 111.553 298.028C110.153 293.356 108.505 288.762 106.615 284.266C104.731 280.098 102.477 275.679 98.977 272.609C96.9304 270.723 94.2556 269.666 91.4727 269.643C89.7124 269.785 87.9777 270.154 86.3117 270.74C85.3779 271.063 84.3773 271.143 83.4042 270.971C82.4311 270.8 81.5177 270.384 80.7503 269.761C75.0257 265.312 73.3351 257.467 69.049 251.965C65.9346 247.812 58.4304 240.738 52.9431 245.262C49.977 247.664 49.2058 252.321 49.369 255.88C49.7674 260.293 51.3 264.529 53.8181 268.175C56.2948 272.149 59.4834 275.709 61.7673 279.787C62.9754 282.059 63.4421 284.652 63.102 287.202C62.7122 289.712 62.8639 292.275 63.5469 294.721C66.1719 302.136 74.3732 301.113 80.7503 301.306C85.328 301.403 89.8681 302.157 94.2312 303.545C96.5255 304.25 98.6165 305.497 100.328 307.18C102.039 308.863 103.32 310.933 104.064 313.215C105.324 316.715 106.007 320.63 108.394 323.67C109.53 325.047 110.979 326.13 112.621 326.829C115.113 327.927 122.691 328.401 122.75 327.719C123.155 325.331 123.816 322.994 124.723 320.749C125.998 316.655 127.511 312.636 129.187 308.617Z" fill="#F1AA27"/>
<path d="M164.379 307.253C163.727 302.997 163.845 298.355 161.829 294.425C161.792 294.36 161.742 294.304 161.684 294.259C161.625 294.213 161.558 294.18 161.486 294.161C161.414 294.141 161.34 294.136 161.266 294.146C161.193 294.156 161.122 294.18 161.057 294.217C159.574 295.018 159.574 297.346 159.426 298.77C159.233 301.143 159.426 303.516 159.085 305.874C158.588 310.085 157.592 314.222 156.119 318.198C155.367 320.228 154.134 322.044 152.524 323.491C150.915 324.938 148.977 325.972 146.879 326.503C143.989 327.169 141.252 328.377 138.812 330.062C136.729 331.831 135.102 334.074 134.066 336.603C131.1 343.291 129.617 350.751 128.297 357.899C127.362 362.704 126.606 367.539 125.435 372.3C124.155 377.023 123.126 381.81 122.35 386.641C122.231 386.893 122.112 387.13 122.009 387.382C121.697 388.109 122.839 388.495 123.225 387.901C127.837 380.797 133.458 374.435 141.11 370.535C144.566 368.77 149.163 368.399 152.055 365.626C154.25 363.52 154.547 360.302 154.22 357.425C153.79 353.658 151.981 350.558 150.098 347.355C149.059 345.59 147.843 343.692 148.259 341.556C148.539 340.581 149.017 339.673 149.662 338.89C150.308 338.107 151.107 337.465 152.011 337.003C155.184 335.031 158.907 334.141 161.517 331.293C163.903 328.675 165.326 325.322 165.551 321.787C165.702 316.914 165.309 312.039 164.379 307.253Z" fill="#F1AA27"/>
<path d="M101.543 331.738C97.4662 326.535 92.5728 322.027 87.0532 318.391C84.0871 316.433 77.1613 312.577 75.7524 318.391C74.9367 321.772 78.2439 325.094 80.424 327.215C83.7015 330.403 87.4833 333.147 90.2418 336.825C86.8307 337.922 83.2566 338.13 80.2757 340.503C76.7608 343.306 75.174 348.704 78.674 352.145C80.4854 353.7 82.533 354.956 84.7396 355.867C87.4981 357.187 90.3011 358.403 93.1189 359.575C99.2142 362.126 105.384 364.706 110.574 368.874C115.765 373.041 120.852 380.308 121.267 387.234C121.267 387.901 121.06 387.234 121.445 386.997C121.668 387.189 122.394 386.833 122.394 386.448C122.405 376.294 120.304 366.248 116.225 356.95C112.352 347.991 107.423 339.528 101.543 331.738Z" fill="#F1AA27"/>
<path d="M87.4982 235.948C89.7524 240.605 92.0956 245.143 94.5871 249.681C97.0731 253.981 99.2728 258.439 101.172 263.028C103.382 268.768 105.621 274.418 108.024 280.113C110.48 286.018 112.595 292.059 114.356 298.206C117.813 310.239 120.21 322.55 121.519 335.001C122.179 341.321 122.431 347.676 122.276 354.028C122.142 358.982 121.579 363.891 121.119 368.859C120.521 373.997 120.382 379.179 120.704 384.342C121.074 388.643 121.757 393.759 125.153 396.829C125.287 396.947 125.457 397.015 125.636 397.021C125.814 397.027 125.989 396.971 126.131 396.862C126.272 396.754 126.372 396.6 126.413 396.426C126.454 396.252 126.433 396.07 126.354 395.91C122.379 387.768 122.602 378.884 123.388 370.045C123.818 365.181 124.396 360.331 124.56 355.437C124.753 349.206 124.545 342.97 123.937 336.766C122.697 324.577 120.445 312.513 117.204 300.698C115.573 294.656 113.593 288.713 111.271 282.901C108.973 277.058 106.303 271.363 104.064 265.49C100.015 254.857 93.8308 245.439 88.3732 235.533C88.0914 235.014 87.3499 235.533 87.5871 235.992L87.4982 235.948Z" fill="#43588E"/>
<path d="M121.712 322.914C122.35 315.173 123.032 307.728 125.642 300.342C126.858 296.901 128.341 293.55 129.513 290.094C130.477 287.232 131.93 283.317 131.189 280.276C131.173 280.2 131.131 280.131 131.07 280.082C131.009 280.033 130.933 280.006 130.855 280.006C130.777 280.006 130.701 280.033 130.64 280.082C130.58 280.131 130.538 280.2 130.521 280.276C130.017 282.012 130.077 283.91 129.706 285.69C129.354 287.419 128.903 289.128 128.356 290.806C127.214 294.38 125.716 297.806 124.411 301.336C121.82 308.219 120.713 315.573 121.163 322.914C121.163 322.985 121.192 323.053 121.242 323.103C121.292 323.153 121.36 323.181 121.43 323.181C121.501 323.181 121.569 323.153 121.619 323.103C121.669 323.053 121.697 322.985 121.697 322.914H121.712Z" fill="#43588E"/>
<path d="M76.8499 278.438C79.9198 285.853 89.1592 286.283 95.8922 287.944C98.1891 288.569 100.337 289.648 102.21 291.118C104.082 292.588 105.64 294.418 106.793 296.501C109.482 301.215 111.569 306.247 113.007 311.48C113.007 311.48 113.11 311.48 113.096 311.48C111.212 302.582 108.528 291.874 99.3477 287.751C91.9325 284.429 82.3223 286.09 77.6211 278.156C77.3838 277.77 76.6719 278.023 76.8499 278.482V278.438Z" fill="#43588E"/>
<path d="M116.848 321.742C117.218 322.232 117.545 322.751 117.93 323.225C118.105 323.467 118.309 323.686 118.538 323.878C118.769 324.113 119.072 324.264 119.399 324.308C119.431 324.31 119.462 324.303 119.491 324.288C119.519 324.273 119.543 324.25 119.56 324.223C119.576 324.196 119.585 324.164 119.586 324.132C119.586 324.1 119.578 324.069 119.562 324.041C119.373 323.813 119.154 323.614 118.909 323.448L118.257 322.869C117.827 322.454 117.441 322.009 117.011 321.594C117.011 321.52 116.774 321.594 116.848 321.728V321.742Z" fill="#43588E"/>
<path d="M97.6422 345.293C103.01 349.661 107.747 354.752 111.716 360.42C113.572 363.139 115.28 365.956 116.833 368.859C118.402 372.035 119.789 375.298 120.985 378.632C121.074 378.884 121.534 378.884 121.504 378.632C120.763 371.647 116.343 365.67 112.799 359.857C110.916 356.959 108.707 354.286 106.214 351.893C103.743 349.263 101.033 346.87 98.1168 344.744C97.7608 344.492 97.2863 345.071 97.6422 345.367V345.293Z" fill="#43588E"/>
<path d="M139.835 337.062C137.284 338.545 137.21 342.549 137.151 345.115C137.062 350.068 138.278 354.71 136.112 359.426C134.155 363.683 131.026 367.242 128.549 371.187C126.25 374.895 123.981 379.626 124.1 384.075C124.1 384.342 124.5 384.475 124.619 384.223C125.394 382.119 126.037 379.97 126.547 377.787C127.283 375.438 128.342 373.202 129.691 371.143C132.064 367.465 134.971 364.128 136.899 360.168C138.826 356.208 138.619 351.893 138.485 347.384C138.396 344.507 138.115 339.88 140.428 337.744C140.799 337.403 140.339 336.84 139.909 337.062H139.835Z" fill="#43588E"/>
<path d="M122.765 384.535C112.488 384.401 92.9854 384.253 92.9854 384.253L97.8202 420.232C98.3482 424.148 100.279 427.739 103.255 430.338C106.231 432.937 110.049 434.369 114 434.365H131.693C135.642 434.365 139.456 432.932 142.429 430.333C145.401 427.734 147.331 424.145 147.858 420.232L152.634 384.253C152.634 384.253 133.028 384.401 122.765 384.535Z" fill="white"/>
<path d="M619.75 318.406L561.095 434.603L390.085 435.834L442.851 316.775L619.75 318.406Z" fill="#F6F7FA"/>
<path d="M276.587 435.107V425.808H387.282L438.224 314.12H615.3L619.749 318.421H446.796L393.866 435.018C393.866 435.018 276.587 434.796 276.587 435.107Z" fill="#D9DEE8"/>
<path d="M530.945 382.533C529.017 388.331 518.531 392.795 507.527 392.528C496.523 392.262 489.167 387.338 491.095 381.539C493.023 375.74 503.523 371.262 514.527 371.543C525.531 371.825 532.872 376.734 530.945 382.533Z" fill="#D9DEE8"/>
<path d="M393.866 435.759C393.759 435.756 393.653 435.731 393.555 435.685C393.376 435.604 393.237 435.456 393.167 435.272C393.098 435.089 393.104 434.885 393.184 434.706L446.307 317.679H619.824C620.02 317.679 620.209 317.757 620.348 317.896C620.487 318.035 620.565 318.224 620.565 318.42C620.561 318.616 620.482 318.802 620.344 318.941C620.206 319.079 620.019 319.158 619.824 319.162H447.271L394.534 435.329C394.476 435.458 394.382 435.567 394.264 435.643C394.145 435.72 394.007 435.76 393.866 435.759Z" fill="white"/>
<path d="M268.875 443.901H65.4452V489.001H268.875V443.901Z" fill="#596B9B"/>
<path d="M633.735 443.901H267.718V489.001H633.735V443.901Z" fill="#7A89AF"/>
<g style="mix-blend-mode:multiply">
<path d="M268.875 443.901H267.718H65.4452V452.191H267.718H268.875H633.735V443.901H268.875Z" fill="#BDC4D7"/>
</g>
<path d="M277.773 435.003H55.6274V446.051H277.773V435.003Z" fill="#6F7FA9"/>
<path d="M642.633 435.003H276.617V446.051H642.633V435.003Z" fill="#9CA6C3"/>
<path d="M217.517 146.417H145.708C141.26 146.417 137.655 150.022 137.655 154.469V190.315C137.655 194.762 141.26 198.368 145.708 198.368H217.517C221.965 198.368 225.57 194.762 225.57 190.315V154.469C225.57 150.022 221.965 146.417 217.517 146.417Z" fill="white"/>
<path d="M246.036 172.385L219.059 161.01V183.759L246.036 172.385Z" fill="white"/>
<path d="M164.572 177.352C167.316 177.352 169.54 175.128 169.54 172.384C169.54 169.64 167.316 167.416 164.572 167.416C161.828 167.416 159.604 169.64 159.604 172.384C159.604 175.128 161.828 177.352 164.572 177.352Z" fill="black"/>
<path d="M181.612 177.352C184.356 177.352 186.581 175.128 186.581 172.384C186.581 169.64 184.356 167.416 181.612 167.416C178.869 167.416 176.644 169.64 176.644 172.384C176.644 175.128 178.869 177.352 181.612 177.352Z" fill="black"/>
<path d="M198.653 177.352C201.397 177.352 203.621 175.128 203.621 172.384C203.621 169.64 201.397 167.416 198.653 167.416C195.909 167.416 193.684 169.64 193.684 172.384C193.684 175.128 195.909 177.352 198.653 177.352Z" fill="black"/>
<path d="M583.133 36.1221H417.328C412.215 36.1221 407.311 38.1533 403.695 41.7689C400.08 45.3846 398.049 50.2884 398.049 55.4017V134.003C398.049 139.117 400.08 144.02 403.695 147.636C407.311 151.252 412.215 153.283 417.328 153.283H432.159C432.574 160.402 431.551 171.08 425.589 184.575C440.366 177.871 452.861 166.994 461.538 153.283H583.148C588.261 153.283 593.165 151.252 596.781 147.636C600.396 144.02 602.428 139.117 602.428 134.003V55.4017C602.428 52.8686 601.928 50.3604 600.958 48.0203C599.989 45.6802 598.567 43.5542 596.775 41.7637C594.984 39.9732 592.856 38.5534 590.516 37.5854C588.175 36.6174 585.666 36.1201 583.133 36.1221Z" fill="#60A8FF"/>
<path d="M512.406 73.6132H430.171C429.087 73.6093 428.048 73.1768 427.281 72.41C426.515 71.6432 426.082 70.6044 426.078 69.52C426.082 68.4356 426.515 67.3967 427.281 66.63C428.048 65.8632 429.087 65.4307 430.171 65.4268H512.406C513.491 65.4307 514.53 65.8632 515.297 66.63C516.063 67.3967 516.496 68.4356 516.5 69.52C516.496 70.6044 516.063 71.6432 515.297 72.41C514.53 73.1768 513.491 73.6093 512.406 73.6132Z" fill="white"/>
<path d="M571.373 97.4464H428.585C427.92 97.4464 427.282 97.1824 426.812 96.7123C426.342 96.2423 426.078 95.6048 426.078 94.9401C426.078 94.2753 426.342 93.6379 426.812 93.1678C427.282 92.6978 427.92 92.4337 428.585 92.4337H571.373C572.037 92.4337 572.675 92.6978 573.145 93.1678C573.615 93.6379 573.879 94.2753 573.879 94.9401C573.879 95.2692 573.814 95.5951 573.688 95.8992C573.562 96.2033 573.378 96.4796 573.145 96.7123C572.912 96.9451 572.636 97.1297 572.332 97.2556C572.028 97.3816 571.702 97.4464 571.373 97.4464Z" fill="#D2E6FF"/>
<path d="M571.373 111.372H428.585C427.92 111.372 427.282 111.108 426.812 110.638C426.342 110.168 426.078 109.53 426.078 108.865C426.078 108.201 426.342 107.563 426.812 107.093C427.282 106.623 427.92 106.359 428.585 106.359H571.373C572.037 106.359 572.675 106.623 573.145 107.093C573.615 107.563 573.879 108.201 573.879 108.865C573.879 109.195 573.814 109.52 573.688 109.825C573.562 110.129 573.378 110.405 573.145 110.638C572.912 110.87 572.636 111.055 572.332 111.181C572.028 111.307 571.702 111.372 571.373 111.372Z" fill="#D2E6FF"/>
<path d="M540.229 126.202H428.585C427.92 126.202 427.282 125.938 426.812 125.468C426.342 124.998 426.078 124.361 426.078 123.696C426.078 123.031 426.342 122.394 426.812 121.924C427.282 121.454 427.92 121.189 428.585 121.189H540.229C540.893 121.189 541.531 121.454 542.001 121.924C542.471 122.394 542.735 123.031 542.735 123.696C542.735 124.361 542.471 124.998 542.001 125.468C541.531 125.938 540.893 126.202 540.229 126.202Z" fill="#D2E6FF"/>
<path d="M570.245 73.6132H531.019C529.934 73.6093 528.895 73.1768 528.129 72.41C527.362 71.6432 526.929 70.6044 526.925 69.52C526.929 68.4356 527.362 67.3967 528.129 66.63C528.895 65.8632 529.934 65.4307 531.019 65.4268H570.245C571.33 65.4307 572.369 65.8632 573.135 66.63C573.902 67.3967 574.335 68.4356 574.339 69.52C574.335 70.6044 573.902 71.6432 573.135 72.41C572.369 73.1768 571.33 73.6093 570.245 73.6132Z" fill="white"/>
<path d="M471.37 218.122H426.835C425.196 218.122 423.868 219.45 423.868 221.088V251.52C423.868 253.158 425.196 254.486 426.835 254.486H471.37C473.009 254.486 474.337 253.158 474.337 251.52V221.088C474.337 219.45 473.009 218.122 471.37 218.122Z" fill="white"/>
<path d="M449.407 241.747C449.153 241.742 448.908 241.653 448.71 241.495L424.462 221.474C424.349 221.376 424.256 221.258 424.189 221.125C424.122 220.991 424.082 220.846 424.071 220.697C424.06 220.549 424.078 220.399 424.125 220.258C424.171 220.116 424.246 219.985 424.343 219.872C424.44 219.759 424.559 219.666 424.692 219.599C424.825 219.532 424.971 219.492 425.119 219.481C425.268 219.47 425.417 219.488 425.559 219.535C425.701 219.582 425.832 219.656 425.945 219.753L449.451 239.181L472.364 219.234C472.474 219.137 472.602 219.062 472.741 219.014C472.88 218.967 473.027 218.946 473.174 218.955C473.321 218.964 473.464 219.002 473.596 219.067C473.728 219.131 473.846 219.221 473.944 219.331C474.041 219.441 474.116 219.569 474.164 219.708C474.211 219.847 474.231 219.994 474.223 220.14C474.214 220.287 474.176 220.431 474.111 220.563C474.047 220.695 473.957 220.813 473.847 220.91L450.222 241.465C450.113 241.566 449.984 241.642 449.844 241.691C449.703 241.739 449.555 241.759 449.407 241.747Z" fill="#6F7FA9"/>
<path d="M425.188 253.656C424.97 253.66 424.756 253.599 424.573 253.48C424.389 253.362 424.245 253.191 424.159 252.991C424.074 252.79 424.049 252.569 424.09 252.354C424.131 252.14 424.234 251.942 424.388 251.787L441.339 233.99C441.547 233.782 441.83 233.665 442.125 233.665C442.42 233.665 442.702 233.782 442.911 233.99C443.119 234.199 443.236 234.482 443.236 234.776C443.236 235.071 443.119 235.354 442.911 235.562L425.96 253.359C425.858 253.459 425.737 253.536 425.605 253.587C425.472 253.638 425.33 253.662 425.188 253.656Z" fill="#6F7FA9"/>
<path d="M473.046 253.003C472.898 253.005 472.75 252.977 472.613 252.921C472.475 252.865 472.35 252.782 472.245 252.677L455.368 235.756C455.16 235.547 455.043 235.264 455.043 234.97C455.043 234.675 455.16 234.392 455.368 234.183C455.471 234.079 455.593 233.995 455.728 233.938C455.863 233.881 456.008 233.852 456.154 233.852C456.301 233.852 456.446 233.881 456.581 233.938C456.716 233.995 456.838 234.079 456.94 234.183L473.832 251.105C474.041 251.316 474.159 251.601 474.159 251.899C474.159 252.196 474.041 252.481 473.832 252.692C473.729 252.794 473.606 252.874 473.471 252.928C473.336 252.981 473.191 253.007 473.046 253.003Z" fill="#6F7FA9"/>
<path d="M476.665 231.87C484.88 231.87 491.54 225.21 491.54 216.995C491.54 208.78 484.88 202.12 476.665 202.12C468.45 202.12 461.79 208.78 461.79 216.995C461.79 225.21 468.45 231.87 476.665 231.87Z" fill="#FF5F42"/>
<path d="M474.827 216.227L474.803 215.951C475.107 216.087 475.371 216.263 475.595 216.479C475.819 216.695 475.991 216.931 476.111 217.187C476.231 217.443 476.291 217.707 476.291 217.979C476.291 218.435 476.163 218.855 475.907 219.239C475.659 219.615 475.323 219.919 474.899 220.151C474.475 220.375 474.003 220.487 473.483 220.487C472.963 220.487 472.491 220.375 472.067 220.151C471.643 219.919 471.303 219.615 471.047 219.239C470.799 218.855 470.675 218.435 470.675 217.979C470.675 217.611 470.751 217.295 470.903 217.031C471.063 216.759 471.259 216.531 471.491 216.347C471.731 216.163 471.967 216.011 472.199 215.891L472.103 216.227C471.903 216.147 471.707 216.035 471.515 215.891C471.331 215.739 471.179 215.547 471.059 215.315C470.939 215.083 470.879 214.811 470.879 214.499C470.879 214.051 470.995 213.647 471.227 213.287C471.459 212.919 471.771 212.627 472.163 212.411C472.563 212.195 473.003 212.087 473.483 212.087C473.971 212.087 474.407 212.195 474.791 212.411C475.183 212.627 475.495 212.919 475.727 213.287C475.959 213.647 476.075 214.051 476.075 214.499C476.075 214.843 476.007 215.131 475.871 215.363C475.735 215.595 475.571 215.779 475.379 215.915C475.187 216.051 475.003 216.155 474.827 216.227ZM472.319 214.523C472.319 214.739 472.367 214.931 472.463 215.099C472.567 215.267 472.707 215.403 472.883 215.507C473.059 215.603 473.259 215.651 473.483 215.651C473.707 215.651 473.903 215.603 474.071 215.507C474.247 215.403 474.383 215.267 474.479 215.099C474.583 214.931 474.635 214.739 474.635 214.523C474.635 214.203 474.523 213.939 474.299 213.731C474.083 213.515 473.811 213.407 473.483 213.407C473.147 213.407 472.867 213.515 472.643 213.731C472.427 213.939 472.319 214.203 472.319 214.523ZM473.483 219.167C473.867 219.167 474.191 219.051 474.455 218.819C474.719 218.579 474.851 218.291 474.851 217.955C474.851 217.723 474.791 217.515 474.671 217.331C474.551 217.147 474.387 217.003 474.179 216.899C473.971 216.787 473.739 216.731 473.483 216.731C473.227 216.731 472.995 216.787 472.787 216.899C472.579 217.003 472.415 217.147 472.295 217.331C472.175 217.515 472.115 217.723 472.115 217.955C472.115 218.291 472.247 218.579 472.511 218.819C472.775 219.051 473.099 219.167 473.483 219.167ZM479.661 220.607C479.365 220.607 479.049 220.563 478.713 220.475C478.377 220.379 478.101 220.243 477.885 220.067C477.781 219.979 477.697 219.867 477.633 219.731C477.577 219.587 477.549 219.451 477.549 219.323C477.549 219.187 477.605 219.059 477.717 218.939C477.837 218.819 478.005 218.759 478.221 218.759C478.365 218.759 478.545 218.835 478.761 218.987C478.889 219.067 479.029 219.139 479.181 219.203C479.333 219.267 479.489 219.299 479.649 219.299C480.033 219.299 480.365 219.231 480.645 219.095C480.925 218.951 481.141 218.755 481.293 218.507C481.445 218.259 481.521 217.967 481.521 217.631C481.521 217.327 481.449 217.067 481.305 216.851C481.169 216.635 480.985 216.467 480.753 216.347C480.529 216.227 480.285 216.167 480.021 216.167C479.773 216.167 479.557 216.207 479.373 216.287C479.189 216.367 479.021 216.451 478.869 216.539C478.717 216.619 478.565 216.659 478.413 216.659C478.149 216.659 477.953 216.603 477.825 216.491C477.697 216.371 477.617 216.231 477.585 216.071C477.553 215.911 477.545 215.767 477.561 215.639L477.933 212.723C477.965 212.555 478.045 212.419 478.173 212.315C478.309 212.203 478.469 212.147 478.653 212.147H482.121C482.313 212.147 482.473 212.211 482.601 212.339C482.729 212.467 482.793 212.627 482.793 212.819C482.793 213.003 482.729 213.159 482.601 213.287C482.473 213.407 482.313 213.467 482.121 213.467H479.025L479.157 213.359L478.833 215.795L478.677 215.339C478.725 215.259 478.829 215.183 478.989 215.111C479.149 215.039 479.333 214.979 479.541 214.931C479.749 214.875 479.953 214.847 480.153 214.847C480.689 214.847 481.169 214.971 481.593 215.219C482.017 215.459 482.349 215.791 482.589 216.215C482.837 216.631 482.961 217.103 482.961 217.631C482.961 218.231 482.825 218.755 482.553 219.203C482.281 219.651 481.897 219.999 481.401 220.247C480.913 220.487 480.333 220.607 479.661 220.607Z" fill="white"/>
<path d="M626.127 186.058H539.19C535.914 186.058 533.258 188.714 533.258 191.991V205.59C533.258 208.866 535.914 211.522 539.19 211.522H626.127C629.403 211.522 632.059 208.866 632.059 205.59V191.991C632.059 188.714 629.403 186.058 626.127 186.058Z" fill="black"/>
<path d="M545.464 205.471C545.286 205.479 545.11 205.446 544.947 205.374C544.785 205.302 544.642 205.193 544.529 205.056C544.408 204.913 544.317 204.748 544.261 204.57C544.205 204.392 544.185 204.204 544.203 204.018L544.589 200.71C544.589 200.636 544.589 200.577 544.589 200.547C544.589 200.518 544.47 200.547 544.381 200.547L541.667 202.505C541.524 202.623 541.357 202.708 541.178 202.754C540.998 202.8 540.811 202.806 540.629 202.772C540.442 202.738 540.266 202.664 540.112 202.553C539.958 202.443 539.831 202.3 539.739 202.134C539.623 201.965 539.55 201.769 539.527 201.565C539.504 201.361 539.531 201.154 539.606 200.963C539.68 200.798 539.787 200.651 539.919 200.529C540.052 200.406 540.207 200.312 540.377 200.251L543.417 198.871C543.506 198.871 543.55 198.871 543.55 198.753C543.55 198.634 543.55 198.649 543.417 198.619L540.377 197.255C540.198 197.187 540.037 197.08 539.906 196.942C539.775 196.803 539.678 196.636 539.62 196.454C539.566 196.275 539.549 196.087 539.57 195.901C539.59 195.715 539.648 195.535 539.739 195.371C539.833 195.206 539.961 195.063 540.114 194.95C540.268 194.838 540.443 194.759 540.629 194.719C540.992 194.667 541.362 194.751 541.667 194.956L544.381 196.958C544.47 196.958 544.529 196.958 544.589 196.958C544.648 196.958 544.589 196.869 544.589 196.78L544.203 193.488C544.182 193.301 544.202 193.111 544.261 192.932C544.32 192.753 544.416 192.589 544.544 192.45C544.67 192.31 544.827 192.199 545.001 192.128C545.176 192.056 545.364 192.024 545.553 192.035C545.738 192.031 545.922 192.069 546.091 192.146C546.26 192.223 546.41 192.337 546.529 192.479C546.649 192.621 546.735 192.788 546.781 192.968C546.828 193.148 546.834 193.335 546.798 193.518L546.428 196.81C546.428 196.899 546.428 196.958 546.428 196.988C546.461 197.008 546.5 197.018 546.539 197.018C546.578 197.018 546.616 197.008 546.65 196.988L549.349 195.03C549.498 194.912 549.67 194.826 549.854 194.778C550.037 194.729 550.229 194.719 550.417 194.749C550.6 194.785 550.773 194.862 550.922 194.976C551.071 195.089 551.193 195.234 551.277 195.401C551.394 195.57 551.469 195.765 551.495 195.969C551.521 196.173 551.497 196.38 551.425 196.573C551.264 196.896 550.989 197.149 550.654 197.285L547.599 198.649C547.525 198.649 547.48 198.649 547.48 198.782C547.48 198.916 547.481 198.871 547.599 198.901L550.654 200.28C550.833 200.35 550.995 200.457 551.128 200.596C551.261 200.734 551.363 200.9 551.425 201.081C551.485 201.261 551.502 201.452 551.476 201.64C551.451 201.827 551.382 202.007 551.277 202.164C551.195 202.331 551.074 202.476 550.924 202.587C550.775 202.698 550.601 202.771 550.417 202.802C550.233 202.838 550.044 202.837 549.86 202.799C549.677 202.761 549.503 202.686 549.349 202.579L546.65 200.577C546.616 200.557 546.578 200.547 546.539 200.547C546.5 200.547 546.461 200.557 546.428 200.577C546.41 200.6 546.4 200.629 546.4 200.659C546.4 200.688 546.41 200.717 546.428 200.74L546.798 204.047C546.833 204.233 546.822 204.424 546.768 204.604C546.714 204.785 546.618 204.95 546.487 205.085C546.353 205.218 546.193 205.321 546.017 205.388C545.84 205.454 545.652 205.483 545.464 205.471Z" fill="white"/>
<path d="M563.438 205.471C563.261 205.478 563.085 205.444 562.923 205.372C562.761 205.3 562.617 205.192 562.504 205.056C562.385 204.913 562.295 204.747 562.242 204.569C562.188 204.39 562.172 204.203 562.192 204.018L562.563 200.711C562.563 200.636 562.563 200.577 562.563 200.547C562.563 200.518 562.445 200.547 562.356 200.547L559.642 202.505C559.499 202.624 559.332 202.71 559.153 202.756C558.973 202.802 558.785 202.808 558.603 202.772C558.23 202.665 557.913 202.415 557.722 202.077C557.53 201.738 557.48 201.338 557.58 200.963C557.742 200.639 558.016 200.386 558.351 200.251L561.406 198.872C561.481 198.872 561.525 198.872 561.525 198.753C561.525 198.634 561.525 198.649 561.406 198.619L558.351 197.255C558.176 197.183 558.017 197.074 557.887 196.936C557.756 196.798 557.657 196.634 557.595 196.454C557.5 196.089 557.548 195.702 557.728 195.372C557.821 195.208 557.946 195.065 558.097 194.953C558.248 194.84 558.42 194.761 558.603 194.719C558.967 194.658 559.341 194.743 559.642 194.956L562.356 196.958C562.445 196.958 562.519 196.958 562.563 196.958C562.608 196.958 562.563 196.869 562.563 196.78L562.192 193.488C562.174 193.302 562.193 193.114 562.249 192.935C562.305 192.757 562.397 192.592 562.519 192.45C562.646 192.311 562.803 192.202 562.977 192.131C563.151 192.059 563.339 192.026 563.527 192.035C563.709 192.029 563.889 192.063 564.056 192.134C564.222 192.206 564.371 192.314 564.491 192.45C564.616 192.589 564.706 192.755 564.755 192.936C564.804 193.116 564.81 193.305 564.773 193.488L564.402 196.78C564.402 196.869 564.402 196.929 564.402 196.958C564.402 196.958 564.521 196.958 564.61 196.958L567.324 195.001C567.472 194.881 567.644 194.794 567.828 194.746C568.012 194.697 568.204 194.688 568.392 194.719C568.573 194.755 568.744 194.833 568.891 194.946C569.037 195.059 569.156 195.205 569.237 195.372C569.358 195.539 569.435 195.734 569.461 195.938C569.487 196.143 569.461 196.351 569.385 196.543C569.224 196.866 568.949 197.12 568.614 197.255L565.574 198.619C565.485 198.619 565.44 198.664 565.44 198.753C565.44 198.753 565.44 198.842 565.574 198.872L568.614 200.251C568.794 200.318 568.957 200.425 569.09 200.564C569.224 200.702 569.325 200.869 569.385 201.052C569.448 201.231 569.467 201.423 569.441 201.611C569.416 201.799 569.346 201.978 569.237 202.134C569.157 202.3 569.039 202.445 568.892 202.556C568.744 202.666 568.573 202.741 568.392 202.772C568.208 202.81 568.018 202.81 567.835 202.772C567.651 202.734 567.477 202.658 567.324 202.549L564.595 200.592C564.506 200.592 564.447 200.592 564.387 200.592C564.328 200.592 564.387 200.681 564.387 200.755L564.758 204.062C564.792 204.248 564.782 204.438 564.728 204.619C564.674 204.799 564.577 204.964 564.447 205.1C564.313 205.229 564.155 205.328 563.981 205.392C563.808 205.456 563.623 205.483 563.438 205.471Z" fill="white"/>
<path d="M581.427 205.471C581.248 205.478 581.07 205.444 580.905 205.372C580.741 205.301 580.595 205.192 580.478 205.056C580.359 204.913 580.27 204.747 580.216 204.569C580.163 204.39 580.146 204.203 580.167 204.018L580.552 200.71C580.552 200.636 580.552 200.577 580.552 200.547C580.521 200.528 580.485 200.517 580.449 200.517C580.412 200.517 580.376 200.528 580.345 200.547L577.631 202.505C577.488 202.623 577.321 202.708 577.142 202.754C576.962 202.8 576.775 202.806 576.593 202.772C576.406 202.738 576.23 202.664 576.076 202.553C575.922 202.443 575.795 202.3 575.703 202.134C575.584 201.966 575.51 201.77 575.487 201.565C575.463 201.361 575.492 201.153 575.569 200.963C575.644 200.798 575.751 200.651 575.883 200.529C576.015 200.406 576.171 200.312 576.341 200.251L579.381 198.871C579.47 198.871 579.514 198.871 579.514 198.753C579.514 198.634 579.514 198.649 579.381 198.619L576.341 197.255C576.162 197.187 576.001 197.08 575.87 196.942C575.739 196.803 575.642 196.636 575.584 196.454C575.53 196.275 575.513 196.087 575.533 195.901C575.554 195.715 575.611 195.535 575.703 195.371C575.797 195.206 575.925 195.063 576.078 194.95C576.231 194.838 576.407 194.759 576.593 194.719C576.956 194.667 577.326 194.751 577.631 194.956L580.345 196.958C580.376 196.978 580.412 196.989 580.449 196.989C580.485 196.989 580.521 196.978 580.552 196.958C580.552 196.958 580.552 196.869 580.552 196.78L580.167 193.488C580.146 193.301 580.166 193.111 580.225 192.932C580.284 192.753 580.38 192.589 580.508 192.45C580.633 192.312 580.786 192.203 580.958 192.131C581.13 192.059 581.316 192.026 581.502 192.035C581.688 192.029 581.874 192.065 582.045 192.141C582.216 192.217 582.368 192.331 582.489 192.473C582.61 192.615 582.697 192.783 582.744 192.964C582.792 193.145 582.798 193.334 582.762 193.518L582.391 196.81C582.391 196.899 582.391 196.958 582.391 196.988C582.422 197.008 582.458 197.018 582.495 197.018C582.532 197.018 582.568 197.008 582.599 196.988L585.313 195.03C585.462 194.912 585.634 194.826 585.818 194.778C586.001 194.729 586.193 194.719 586.381 194.749C586.564 194.785 586.737 194.862 586.886 194.976C587.035 195.089 587.157 195.234 587.241 195.401C587.358 195.57 587.433 195.765 587.459 195.969C587.485 196.173 587.461 196.38 587.389 196.573C587.228 196.896 586.953 197.149 586.618 197.285L583.563 198.649C583.489 198.649 583.444 198.649 583.444 198.783C583.444 198.916 583.444 198.871 583.563 198.901L586.618 200.28C586.797 200.35 586.959 200.457 587.092 200.596C587.225 200.734 587.327 200.9 587.389 201.081C587.449 201.261 587.466 201.452 587.44 201.64C587.414 201.827 587.346 202.007 587.241 202.164C587.159 202.331 587.038 202.476 586.888 202.587C586.738 202.698 586.565 202.771 586.381 202.802C586.197 202.838 586.008 202.837 585.824 202.799C585.641 202.761 585.467 202.686 585.313 202.579L582.599 200.577C582.568 200.557 582.532 200.547 582.495 200.547C582.458 200.547 582.422 200.557 582.391 200.577C582.373 200.6 582.364 200.629 582.364 200.659C582.364 200.688 582.373 200.717 582.391 200.74L582.762 204.047C582.796 204.233 582.786 204.424 582.732 204.604C582.678 204.785 582.581 204.95 582.451 205.085C582.317 205.218 582.157 205.321 581.98 205.388C581.804 205.454 581.616 205.483 581.427 205.471Z" fill="white"/>
<path d="M599.402 205.472C599.225 205.479 599.048 205.445 598.886 205.373C598.724 205.301 598.581 205.192 598.468 205.056C598.348 204.913 598.259 204.747 598.206 204.569C598.152 204.391 598.135 204.203 598.156 204.018L598.527 200.711C598.527 200.637 598.527 200.577 598.527 200.548C598.527 200.518 598.408 200.548 598.319 200.548L595.605 202.505C595.463 202.624 595.296 202.71 595.117 202.756C594.937 202.802 594.749 202.808 594.567 202.772C594.194 202.665 593.877 202.415 593.686 202.077C593.494 201.739 593.443 201.339 593.544 200.963C593.709 200.689 593.959 200.476 594.256 200.355L597.311 198.976C597.385 198.976 597.43 198.976 597.43 198.857C597.43 198.738 597.43 198.753 597.311 198.724L594.256 197.359C594.08 197.287 593.922 197.179 593.791 197.04C593.661 196.902 593.561 196.738 593.499 196.558C593.405 196.194 593.453 195.807 593.633 195.476C593.725 195.312 593.851 195.169 594.002 195.057C594.152 194.945 594.325 194.865 594.508 194.823C594.872 194.762 595.245 194.847 595.546 195.061L598.26 197.063C598.349 197.063 598.423 197.063 598.468 197.063C598.512 197.063 598.468 196.974 598.468 196.885L598.097 193.592C598.074 193.406 598.092 193.217 598.148 193.038C598.204 192.859 598.298 192.694 598.423 192.554C598.551 192.416 598.707 192.306 598.881 192.235C599.056 192.163 599.243 192.13 599.432 192.139C599.613 192.133 599.793 192.167 599.96 192.239C600.127 192.31 600.276 192.418 600.396 192.554C600.52 192.693 600.61 192.86 600.659 193.04C600.708 193.22 600.714 193.409 600.677 193.592L600.307 196.885C600.307 196.974 600.307 197.033 600.307 197.063C600.307 197.063 600.425 197.063 600.514 197.063L603.228 195.105C603.376 194.985 603.548 194.898 603.732 194.85C603.916 194.801 604.108 194.792 604.296 194.823C604.478 194.859 604.649 194.937 604.795 195.05C604.942 195.164 605.06 195.309 605.141 195.476C605.259 195.645 605.334 195.839 605.359 196.043C605.385 196.247 605.361 196.455 605.29 196.647C605.128 196.971 604.854 197.224 604.519 197.359L601.478 198.724C601.389 198.724 601.345 198.768 601.345 198.857C601.345 198.857 601.345 198.946 601.478 198.976L604.637 200.355C604.817 200.423 604.98 200.53 605.113 200.668C605.247 200.807 605.348 200.973 605.408 201.156C605.471 201.335 605.49 201.527 605.464 201.715C605.439 201.903 605.369 202.083 605.26 202.238C605.18 202.404 605.062 202.549 604.915 202.66C604.768 202.771 604.596 202.845 604.415 202.876C604.231 202.915 604.041 202.915 603.858 202.876C603.674 202.838 603.5 202.762 603.347 202.654L600.633 200.652C600.544 200.652 600.485 200.652 600.425 200.652C600.366 200.652 600.425 200.741 600.425 200.815L600.796 204.122C600.83 204.307 600.82 204.498 600.766 204.679C600.712 204.859 600.615 205.024 600.485 205.16C600.338 205.288 600.165 205.382 599.978 205.436C599.791 205.489 599.594 205.502 599.402 205.472Z" fill="white"/>
<path d="M617.391 205.471C617.212 205.48 617.033 205.446 616.869 205.374C616.704 205.302 616.558 205.194 616.442 205.056C616.323 204.913 616.234 204.747 616.18 204.569C616.127 204.391 616.11 204.203 616.131 204.018L616.516 200.711C616.516 200.637 616.516 200.577 616.516 200.548C616.485 200.528 616.449 200.517 616.413 200.517C616.376 200.517 616.34 200.528 616.309 200.548L613.536 202.55C613.305 202.703 613.034 202.783 612.757 202.779C612.48 202.774 612.211 202.686 611.986 202.525C611.76 202.364 611.589 202.138 611.495 201.878C611.401 201.617 611.389 201.335 611.459 201.067C611.625 200.741 611.905 200.487 612.245 200.355L615.286 198.976C615.375 198.976 615.404 198.976 615.404 198.857C615.404 198.738 615.404 198.753 615.286 198.724L612.245 197.359C612.067 197.292 611.906 197.184 611.775 197.046C611.644 196.907 611.546 196.74 611.489 196.558C611.431 196.38 611.412 196.191 611.433 196.004C611.453 195.818 611.513 195.638 611.608 195.476C611.7 195.312 611.825 195.169 611.976 195.057C612.127 194.945 612.299 194.865 612.483 194.823C612.851 194.767 613.227 194.852 613.536 195.06L616.249 197.063C616.28 197.082 616.317 197.093 616.353 197.093C616.39 197.093 616.426 197.082 616.457 197.063C616.457 197.063 616.457 196.974 616.457 196.885L616.072 193.592C616.051 193.405 616.071 193.215 616.13 193.036C616.188 192.857 616.285 192.693 616.413 192.554C616.537 192.416 616.691 192.307 616.863 192.235C617.035 192.163 617.22 192.13 617.406 192.139C617.593 192.133 617.779 192.17 617.95 192.246C618.121 192.321 618.272 192.435 618.393 192.577C618.514 192.72 618.602 192.888 618.649 193.068C618.697 193.249 618.703 193.438 618.667 193.622L618.281 196.914C618.281 197.003 618.281 197.063 618.281 197.092C618.312 197.112 618.348 197.123 618.385 197.123C618.422 197.123 618.458 197.112 618.489 197.092L621.203 195.135C621.352 195.017 621.524 194.931 621.707 194.882C621.891 194.834 622.083 194.824 622.271 194.853C622.454 194.889 622.627 194.967 622.776 195.08C622.925 195.193 623.047 195.338 623.131 195.505C623.248 195.674 623.323 195.869 623.349 196.073C623.375 196.277 623.351 196.484 623.279 196.677C623.114 197.003 622.834 197.257 622.493 197.389L619.453 198.753C619.364 198.753 619.334 198.753 619.334 198.887C619.334 199.02 619.334 198.976 619.453 199.005L622.493 200.385C622.675 200.451 622.841 200.558 622.977 200.696C623.113 200.835 623.216 201.002 623.279 201.185C623.338 201.365 623.356 201.556 623.33 201.744C623.304 201.932 623.236 202.111 623.131 202.268C623.048 202.435 622.927 202.58 622.778 202.691C622.628 202.802 622.454 202.876 622.271 202.906C622.087 202.942 621.898 202.942 621.714 202.903C621.531 202.865 621.357 202.79 621.203 202.683L618.489 200.681C618.458 200.661 618.422 200.651 618.385 200.651C618.348 200.651 618.312 200.661 618.281 200.681C618.281 200.681 618.281 200.77 618.281 200.844L618.667 204.152C618.701 204.337 618.691 204.528 618.637 204.708C618.582 204.889 618.486 205.054 618.355 205.19C618.083 205.406 617.737 205.507 617.391 205.471Z" fill="#67ACFF"/>
</svg>
